<svg width="33" height="31" viewBox="0 0 33 31" fill="none" xmlns="http://www.w3.org/2000/svg">
<path d="M1 1.9C1 1.40294 1.40294 1 1.9 1H7.3C7.79706 1 8.2 1.40294 8.2 1.9V7.3C8.2 7.79706 7.79706 8.2 7.3 8.2H1.9C1.40294 8.2 1 7.79706 1 7.3V1.9Z" stroke="#737373" stroke-width="2"/>
<path d="M12.7 1.9C12.7 1.40294 13.1029 1 13.6 1H19C19.4971 1 19.9 1.40294 19.9 1.9V7.3C19.9 7.79706 19.4971 8.2 19 8.2H13.6C13.1029 8.2 12.7 7.79706 12.7 7.3V1.9Z" stroke="#737373" stroke-width="2"/>
<path d="M24.4 1.9C24.4 1.40294 24.8029 1 25.3 1H30.7C31.1971 1 31.6 1.40294 31.6 1.9V7.3C31.6 7.79706 31.1971 8.2 30.7 8.2H25.3C24.8029 8.2 24.4 7.79706 24.4 7.3V1.9Z" stroke="#737373" stroke-width="2"/>
<path d="M1 12.5857C1 12.0887 1.40294 11.6857 1.9 11.6857H7.3C7.79706 11.6857 8.2 12.0887 8.2 12.5857V17.9857C8.2 18.4828 7.79706 18.8857 7.3 18.8857H1.9C1.40294 18.8857 1 18.4828 1 17.9857V12.5857Z" stroke="#737373" stroke-width="2"/>
<path d="M12.7 12.5857C12.7 12.0887 13.1029 11.6857 13.6 11.6857H19C19.4971 11.6857 19.9 12.0887 19.9 12.5857V17.9857C19.9 18.4828 19.4971 18.8857 19 18.8857H13.6C13.1029 18.8857 12.7 18.4828 12.7 17.9857V12.5857Z" stroke="#737373" stroke-width="2"/>
<path d="M24.4 12.5857C24.4 12.0887 24.8029 11.6857 25.3 11.6857H30.7C31.1971 11.6857 31.6 12.0887 31.6 12.5857V17.9857C31.6 18.4828 31.1971 18.8857 30.7 18.8857H25.3C24.8029 18.8857 24.4 18.4828 24.4 17.9857V12.5857Z" stroke="#737373" stroke-width="2"/>
<path d="M1 23.2714C1 22.7744 1.40294 22.3714 1.9 22.3714H7.3C7.79706 22.3714 8.2 22.7744 8.2 23.2714V28.6714C8.2 29.1685 7.79706 29.5714 7.3 29.5714H1.9C1.40294 29.5714 1 29.1685 1 28.6714V23.2714Z" stroke="#737373" stroke-width="2"/>
<path d="M12.7 23.2714C12.7 22.7744 13.1029 22.3714 13.6 22.3714H19C19.4971 22.3714 19.9 22.7744 19.9 23.2714V28.6714C19.9 29.1685 19.4971 29.5714 19 29.5714H13.6C13.1029 29.5714 12.7 29.1685 12.7 28.6714V23.2714Z" stroke="#737373" stroke-width="2"/>
<path d="M24.4 23.2714C24.4 22.7744 24.8029 22.3714 25.3 22.3714H30.7C31.1971 22.3714 31.6 22.7744 31.6 23.2714V28.6714C31.6 29.1685 31.1971 29.5714 30.7 29.5714H25.3C24.8029 29.5714 24.4 29.1685 24.4 28.6714V23.2714Z" stroke="#737373" stroke-width="2"/>
</svg>
