<svg width="33" height="28" viewBox="0 0 33 28" fill="none" xmlns="http://www.w3.org/2000/svg">
<path d="M1 1.45C1 1.20147 1.20147 1 1.45 1H4.825C5.07353 1 5.275 1.20147 5.275 1.45V4.825C5.275 5.07353 5.07353 5.275 4.825 5.275H1.45C1.20147 5.275 1 5.07353 1 4.825V1.45Z" stroke="#737373" stroke-width="2"/>
<path d="M9.775 1.45C9.775 1.20147 9.97647 1 10.225 1H13.6C13.8485 1 14.05 1.20147 14.05 1.45V4.825C14.05 5.07353 13.8485 5.275 13.6 5.275H10.225C9.97647 5.275 9.775 5.07353 9.775 4.825V1.45Z" stroke="#737373" stroke-width="2"/>
<path d="M18.55 1.45C18.55 1.20147 18.7515 1 19 1H22.375C22.6235 1 22.825 1.20147 22.825 1.45V4.825C22.825 5.07353 22.6235 5.275 22.375 5.275H19C18.7515 5.275 18.55 5.07353 18.55 4.825V1.45Z" stroke="#737373" stroke-width="2"/>
<path d="M27.325 1.45C27.325 1.20147 27.5265 1 27.775 1H31.15C31.3985 1 31.6 1.20147 31.6 1.45V4.825C31.6 5.07353 31.3985 5.275 31.15 5.275H27.775C27.5265 5.275 27.325 5.07353 27.325 4.825V1.45Z" stroke="#737373" stroke-width="2"/>
<path d="M1 8.57381C1 8.32528 1.20147 8.12381 1.45 8.12381H4.825C5.07353 8.12381 5.275 8.32528 5.275 8.57381V11.9488C5.275 12.1973 5.07353 12.3988 4.825 12.3988H1.45C1.20147 12.3988 1 12.1973 1 11.9488V8.57381Z" stroke="#737373" stroke-width="2"/>
<path d="M9.775 8.57381C9.775 8.32528 9.97647 8.12381 10.225 8.12381H13.6C13.8485 8.12381 14.05 8.32528 14.05 8.57381V11.9488C14.05 12.1973 13.8485 12.3988 13.6 12.3988H10.225C9.97647 12.3988 9.775 12.1973 9.775 11.9488V8.57381Z" stroke="#737373" stroke-width="2"/>
<path d="M18.55 8.57381C18.55 8.32528 18.7515 8.12381 19 8.12381H22.375C22.6235 8.12381 22.825 8.32528 22.825 8.57381V11.9488C22.825 12.1973 22.6235 12.3988 22.375 12.3988H19C18.7515 12.3988 18.55 12.1973 18.55 11.9488V8.57381Z" stroke="#737373" stroke-width="2"/>
<path d="M27.325 8.57381C27.325 8.32528 27.5265 8.12381 27.775 8.12381H31.15C31.3985 8.12381 31.6 8.32528 31.6 8.57381V11.9488C31.6 12.1973 31.3985 12.3988 31.15 12.3988H27.775C27.5265 12.3988 27.325 12.1973 27.325 11.9488V8.57381Z" stroke="#737373" stroke-width="2"/>
<path d="M1 15.6976C1 15.4491 1.20147 15.2476 1.45 15.2476H4.825C5.07353 15.2476 5.275 15.4491 5.275 15.6976V19.0726C5.275 19.3211 5.07353 19.5226 4.825 19.5226H1.45C1.20147 19.5226 1 19.3211 1 19.0726V15.6976Z" stroke="#737373" stroke-width="2"/>
<path d="M9.775 15.6976C9.775 15.4491 9.97647 15.2476 10.225 15.2476H13.6C13.8485 15.2476 14.05 15.4491 14.05 15.6976V19.0726C14.05 19.3211 13.8485 19.5226 13.6 19.5226H10.225C9.97647 19.5226 9.775 19.3211 9.775 19.0726V15.6976Z" stroke="#737373" stroke-width="2"/>
<path d="M18.55 15.6976C18.55 15.4491 18.7515 15.2476 19 15.2476H22.375C22.6235 15.2476 22.825 15.4491 22.825 15.6976V19.0726C22.825 19.3211 22.6235 19.5226 22.375 19.5226H19C18.7515 19.5226 18.55 19.3211 18.55 19.0726V15.6976Z" stroke="#737373" stroke-width="2"/>
<path d="M27.325 15.6976C27.325 15.4491 27.5265 15.2476 27.775 15.2476H31.15C31.3985 15.2476 31.6 15.4491 31.6 15.6976V19.0726C31.6 19.3211 31.3985 19.5226 31.15 19.5226H27.775C27.5265 19.5226 27.325 19.3211 27.325 19.0726V15.6976Z" stroke="#737373" stroke-width="2"/>
<path d="M1 22.8214C1 22.5729 1.20147 22.3714 1.45 22.3714H4.825C5.07353 22.3714 5.275 22.5729 5.275 22.8214V26.1964C5.275 26.445 5.07353 26.6464 4.825 26.6464H1.45C1.20147 26.6464 1 26.445 1 26.1964V22.8214Z" stroke="#737373" stroke-width="2"/>
<path d="M9.775 22.8214C9.775 22.5729 9.97647 22.3714 10.225 22.3714H13.6C13.8485 22.3714 14.05 22.5729 14.05 22.8214V26.1964C14.05 26.445 13.8485 26.6464 13.6 26.6464H10.225C9.97647 26.6464 9.775 26.445 9.775 26.1964V22.8214Z" stroke="#737373" stroke-width="2"/>
<path d="M18.55 22.8214C18.55 22.5729 18.7515 22.3714 19 22.3714H22.375C22.6235 22.3714 22.825 22.5729 22.825 22.8214V26.1964C22.825 26.445 22.6235 26.6464 22.375 26.6464H19C18.7515 26.6464 18.55 26.445 18.55 26.1964V22.8214Z" stroke="#737373" stroke-width="2"/>
<path d="M27.325 22.8214C27.325 22.5729 27.5265 22.3714 27.775 22.3714H31.15C31.3985 22.3714 31.6 22.5729 31.6 22.8214V26.1964C31.6 26.445 31.3985 26.6464 31.15 26.6464H27.775C27.5265 26.6464 27.325 26.445 27.325 26.1964V22.8214Z" stroke="#737373" stroke-width="2"/>
</svg>
