<svg width="33" height="26" viewBox="0 0 33 26" fill="none" xmlns="http://www.w3.org/2000/svg">
<path d="M0.75 0.84C0.75 0.790294 0.790294 0.75 0.84 0.75H3.18C3.22971 0.75 3.27 0.790294 3.27 0.84V3.18C3.27 3.22971 3.22971 3.27 3.18 3.27H0.84C0.790294 3.27 0.75 3.22971 0.75 3.18V0.84Z" stroke="#262626" stroke-width="1.5"/>
<path d="M7.77 0.84C7.77 0.790294 7.81029 0.75 7.86 0.75H10.2C10.2497 0.75 10.29 0.790294 10.29 0.84V3.18C10.29 3.22971 10.2497 3.27 10.2 3.27H7.86C7.81029 3.27 7.77 3.22971 7.77 3.18V0.84Z" stroke="#262626" stroke-width="1.5"/>
<path d="M14.79 0.84C14.79 0.790294 14.8303 0.75 14.88 0.75H17.22C17.2697 0.75 17.31 0.790294 17.31 0.84V3.18C17.31 3.22971 17.2697 3.27 17.22 3.27H14.88C14.8303 3.27 14.79 3.22971 14.79 3.18V0.84Z" stroke="#262626" stroke-width="1.5"/>
<path d="M21.81 0.84C21.81 0.790294 21.8503 0.75 21.9 0.75H24.24C24.2897 0.75 24.33 0.790295 24.33 0.84V3.18C24.33 3.22971 24.2897 3.27 24.24 3.27H21.9C21.8503 3.27 21.81 3.22971 21.81 3.18V0.84Z" stroke="#262626" stroke-width="1.5"/>
<path d="M28.83 0.84C28.83 0.790294 28.8703 0.75 28.92 0.75H31.26C31.3097 0.75 31.35 0.790295 31.35 0.84V3.18C31.35 3.22971 31.3097 3.27 31.26 3.27H28.92C28.8703 3.27 28.83 3.22971 28.83 3.18V0.84Z" stroke="#262626" stroke-width="1.5"/>
<path d="M0.75 6.18286C0.75 6.13315 0.790294 6.09286 0.84 6.09286H3.18C3.22971 6.09286 3.27 6.13315 3.27 6.18286V8.52286C3.27 8.57256 3.22971 8.61286 3.18 8.61286H0.84C0.790294 8.61286 0.75 8.57256 0.75 8.52286V6.18286Z" stroke="#262626" stroke-width="1.5"/>
<path d="M7.77 6.18286C7.77 6.13315 7.81029 6.09286 7.86 6.09286H10.2C10.2497 6.09286 10.29 6.13315 10.29 6.18286V8.52286C10.29 8.57256 10.2497 8.61286 10.2 8.61286H7.86C7.81029 8.61286 7.77 8.57256 7.77 8.52286V6.18286Z" stroke="#262626" stroke-width="1.5"/>
<path d="M14.79 6.18286C14.79 6.13315 14.8303 6.09286 14.88 6.09286H17.22C17.2697 6.09286 17.31 6.13315 17.31 6.18286V8.52286C17.31 8.57256 17.2697 8.61286 17.22 8.61286H14.88C14.8303 8.61286 14.79 8.57256 14.79 8.52286V6.18286Z" stroke="#262626" stroke-width="1.5"/>
<path d="M21.81 6.18286C21.81 6.13315 21.8503 6.09286 21.9 6.09286H24.24C24.2897 6.09286 24.33 6.13315 24.33 6.18286V8.52286C24.33 8.57256 24.2897 8.61286 24.24 8.61286H21.9C21.8503 8.61286 21.81 8.57256 21.81 8.52286V6.18286Z" stroke="#262626" stroke-width="1.5"/>
<path d="M28.83 6.18286C28.83 6.13315 28.8703 6.09286 28.92 6.09286H31.26C31.3097 6.09286 31.35 6.13315 31.35 6.18286V8.52286C31.35 8.57256 31.3097 8.61286 31.26 8.61286H28.92C28.8703 8.61286 28.83 8.57256 28.83 8.52286V6.18286Z" stroke="#262626" stroke-width="1.5"/>
<path d="M0.75 11.5257C0.75 11.476 0.790294 11.4357 0.84 11.4357H3.18C3.22971 11.4357 3.27 11.476 3.27 11.5257V13.8657C3.27 13.9154 3.22971 13.9557 3.18 13.9557H0.84C0.790294 13.9557 0.75 13.9154 0.75 13.8657V11.5257Z" stroke="#262626" stroke-width="1.5"/>
<path d="M7.77 11.5257C7.77 11.476 7.81029 11.4357 7.86 11.4357H10.2C10.2497 11.4357 10.29 11.476 10.29 11.5257V13.8657C10.29 13.9154 10.2497 13.9557 10.2 13.9557H7.86C7.81029 13.9557 7.77 13.9154 7.77 13.8657V11.5257Z" stroke="#262626" stroke-width="1.5"/>
<path d="M14.79 11.5257C14.79 11.476 14.8303 11.4357 14.88 11.4357H17.22C17.2697 11.4357 17.31 11.476 17.31 11.5257V13.8657C17.31 13.9154 17.2697 13.9557 17.22 13.9557H14.88C14.8303 13.9557 14.79 13.9154 14.79 13.8657V11.5257Z" stroke="#262626" stroke-width="1.5"/>
<path d="M21.81 11.5257C21.81 11.476 21.8503 11.4357 21.9 11.4357H24.24C24.2897 11.4357 24.33 11.476 24.33 11.5257V13.8657C24.33 13.9154 24.2897 13.9557 24.24 13.9557H21.9C21.8503 13.9557 21.81 13.9154 21.81 13.8657V11.5257Z" stroke="#262626" stroke-width="1.5"/>
<path d="M28.83 11.5257C28.83 11.476 28.8703 11.4357 28.92 11.4357H31.26C31.3097 11.4357 31.35 11.476 31.35 11.5257V13.8657C31.35 13.9154 31.3097 13.9557 31.26 13.9557H28.92C28.8703 13.9557 28.83 13.9154 28.83 13.8657V11.5257Z" stroke="#262626" stroke-width="1.5"/>
<path d="M0.75 16.8686C0.75 16.8189 0.790294 16.7786 0.84 16.7786H3.18C3.22971 16.7786 3.27 16.8189 3.27 16.8686V19.2086C3.27 19.2583 3.22971 19.2986 3.18 19.2986H0.84C0.790294 19.2986 0.75 19.2583 0.75 19.2086V16.8686Z" stroke="#262626" stroke-width="1.5"/>
<path d="M7.77 16.8686C7.77 16.8189 7.81029 16.7786 7.86 16.7786H10.2C10.2497 16.7786 10.29 16.8189 10.29 16.8686V19.2086C10.29 19.2583 10.2497 19.2986 10.2 19.2986H7.86C7.81029 19.2986 7.77 19.2583 7.77 19.2086V16.8686Z" stroke="#262626" stroke-width="1.5"/>
<path d="M14.79 16.8686C14.79 16.8189 14.8303 16.7786 14.88 16.7786H17.22C17.2697 16.7786 17.31 16.8189 17.31 16.8686V19.2086C17.31 19.2583 17.2697 19.2986 17.22 19.2986H14.88C14.8303 19.2986 14.79 19.2583 14.79 19.2086V16.8686Z" stroke="#262626" stroke-width="1.5"/>
<path d="M21.81 16.8686C21.81 16.8189 21.8503 16.7786 21.9 16.7786H24.24C24.2897 16.7786 24.33 16.8189 24.33 16.8686V19.2086C24.33 19.2583 24.2897 19.2986 24.24 19.2986H21.9C21.8503 19.2986 21.81 19.2583 21.81 19.2086V16.8686Z" stroke="#262626" stroke-width="1.5"/>
<path d="M28.83 16.8686C28.83 16.8189 28.8703 16.7786 28.92 16.7786H31.26C31.3097 16.7786 31.35 16.8189 31.35 16.8686V19.2086C31.35 19.2583 31.3097 19.2986 31.26 19.2986H28.92C28.8703 19.2986 28.83 19.2583 28.83 19.2086V16.8686Z" stroke="#262626" stroke-width="1.5"/>
<path d="M0.75 22.2114C0.75 22.1617 0.790294 22.1214 0.84 22.1214H3.18C3.22971 22.1214 3.27 22.1617 3.27 22.2114V24.5514C3.27 24.6011 3.22971 24.6414 3.18 24.6414H0.84C0.790294 24.6414 0.75 24.6011 0.75 24.5514V22.2114Z" stroke="#262626" stroke-width="1.5"/>
<path d="M7.77 22.2114C7.77 22.1617 7.81029 22.1214 7.86 22.1214H10.2C10.2497 22.1214 10.29 22.1617 10.29 22.2114V24.5514C10.29 24.6011 10.2497 24.6414 10.2 24.6414H7.86C7.81029 24.6414 7.77 24.6011 7.77 24.5514V22.2114Z" stroke="#262626" stroke-width="1.5"/>
<path d="M14.79 22.2114C14.79 22.1617 14.8303 22.1214 14.88 22.1214H17.22C17.2697 22.1214 17.31 22.1617 17.31 22.2114V24.5514C17.31 24.6011 17.2697 24.6414 17.22 24.6414H14.88C14.8303 24.6414 14.79 24.6011 14.79 24.5514V22.2114Z" stroke="#262626" stroke-width="1.5"/>
<path d="M21.81 22.2114C21.81 22.1617 21.8503 22.1214 21.9 22.1214H24.24C24.2897 22.1214 24.33 22.1617 24.33 22.2114V24.5514C24.33 24.6011 24.2897 24.6414 24.24 24.6414H21.9C21.8503 24.6414 21.81 24.6011 21.81 24.5514V22.2114Z" stroke="#262626" stroke-width="1.5"/>
<path d="M28.83 22.2114C28.83 22.1617 28.8703 22.1214 28.92 22.1214H31.26C31.3097 22.1214 31.35 22.1617 31.35 22.2114V24.5514C31.35 24.6011 31.3097 24.6414 31.26 24.6414H28.92C28.8703 24.6414 28.83 24.6011 28.83 24.5514V22.2114Z" stroke="#262626" stroke-width="1.5"/>
</svg>
