<svg width="14" height="16" viewBox="0 0 14 16" fill="none" xmlns="http://www.w3.org/2000/svg">
<path d="M13.1946 12.4689C12.9527 13.0279 12.6663 13.5424 12.3344 14.0155C11.8821 14.6604 11.5117 15.1068 11.2263 15.3547C10.7839 15.7616 10.3098 15.97 9.80216 15.9818C9.43772 15.9818 8.99823 15.8781 8.48664 15.6678C7.97337 15.4584 7.50169 15.3547 7.07039 15.3547C6.61806 15.3547 6.13294 15.4584 5.61404 15.6678C5.09436 15.8781 4.6757 15.9878 4.35561 15.9986C3.86881 16.0194 3.3836 15.8051 2.89927 15.3547C2.59014 15.0851 2.20349 14.6229 1.74029 13.9681C1.24332 13.2688 0.834739 12.458 0.51465 11.5336C0.171846 10.5351 0 9.56821 0 8.63214C0 7.55987 0.231696 6.63506 0.69578 5.86007C1.06051 5.23757 1.54573 4.74653 2.15302 4.38604C2.76031 4.02556 3.41648 3.84186 4.12313 3.83011C4.50978 3.83011 5.01683 3.94971 5.64693 4.18477C6.27526 4.42061 6.6787 4.54021 6.85558 4.54021C6.98783 4.54021 7.43601 4.40036 8.19579 4.12156C8.91428 3.863 9.52068 3.75594 10.0175 3.79811C11.3636 3.90675 12.3749 4.4374 13.0475 5.39342C11.8436 6.12288 11.248 7.14458 11.2599 8.45525C11.2708 9.47616 11.6411 10.3257 12.369 11.0003C12.6989 11.3133 13.0672 11.5553 13.4771 11.7272C13.3882 11.9849 13.2944 12.2318 13.1946 12.4689ZM10.1073 0.320091C10.1073 1.12027 9.81499 1.8674 9.2323 2.55894C8.52911 3.38104 7.67857 3.85608 6.75623 3.78112C6.74448 3.68513 6.73766 3.58409 6.73766 3.47792C6.73766 2.70975 7.07207 1.88765 7.66593 1.21547C7.96241 0.875136 8.33949 0.592152 8.79676 0.36641C9.25304 0.144037 9.68463 0.0210593 10.0905 0C10.1024 0.106972 10.1073 0.213951 10.1073 0.320081V0.320091Z" fill="white"/>
</svg>
