<svg width="75" height="40" viewBox="0 0 75 40" fill="none" xmlns="http://www.w3.org/2000/svg">
<g clip-path="url(#clip0_1285_537)">
<path d="M66.2273 25.9532C64.5476 25.9472 62.9037 26.4415 61.507 27.373C60.1103 28.3044 59.0245 29.6305 58.3877 31.1815H63.166C63.5698 30.7854 64.0481 30.473 64.5735 30.2622C65.099 30.0514 65.6613 29.9464 66.2273 29.9532C66.791 29.9463 67.35 30.0513 67.8721 30.2622C68.3948 30.4731 68.8698 30.7856 69.2698 31.1815H74.0575C73.4221 29.6316 72.3372 28.3062 70.9424 27.3748C69.5476 26.4434 67.9056 25.9484 66.2273 25.9532Z" fill="#3BB2B8"/>
<path d="M9.60876 13.7602C10.2355 13.4414 10.7593 12.9524 11.1198 12.3497C11.4803 11.7469 11.6629 11.0549 11.6465 10.3532C11.6465 8.00022 9.95782 6.14611 7.09461 6.14611H1.21253C1.16443 6.14531 1.11669 6.15453 1.0724 6.17326C1.0281 6.19194 0.988222 6.2197 0.955336 6.25472C0.922449 6.28978 0.897284 6.33128 0.881463 6.3766C0.865642 6.42192 0.859515 6.47006 0.863472 6.51787V22.1602C0.860237 22.2079 0.866869 22.2557 0.882958 22.3007C0.899043 22.3457 0.924241 22.387 0.956982 22.4218C0.989722 22.4567 1.02931 22.4845 1.07327 22.5034C1.11724 22.5224 1.16464 22.5321 1.21253 22.532H6.83989C10.8257 22.532 12.7503 20.6496 12.7503 17.8543C12.7755 16.9163 12.4773 15.9979 11.9056 15.2527C11.3338 14.5076 10.5231 13.9807 9.60876 13.7602ZM4.89178 9.71316H6.22668C7.2314 9.71316 7.84461 10.0426 7.84461 11.0732C7.84461 12.1038 7.2314 12.4849 6.22668 12.4849H4.87291L4.89178 9.71316ZM6.60404 18.9743H4.87291V15.6096H6.60404C7.77385 15.6096 8.61819 16.0049 8.61819 17.2708C8.61819 18.5367 7.75499 18.9743 6.60404 18.9743Z" fill="#3BB2B8"/>
<path d="M19.2445 10.4427H15.8907C15.8424 10.4419 15.7945 10.4512 15.7499 10.4699C15.7055 10.4885 15.6653 10.5162 15.632 10.5511C15.5988 10.5861 15.5732 10.6275 15.5568 10.6729C15.5404 10.7182 15.5337 10.7664 15.5369 10.8145V26.4427C15.5344 26.4906 15.5416 26.5385 15.5582 26.5835C15.5749 26.6286 15.6005 26.6697 15.6336 26.7045C15.6667 26.7393 15.7066 26.767 15.7508 26.7859C15.795 26.8048 15.8426 26.8145 15.8907 26.8145H19.2445C19.2936 26.8151 19.3423 26.8059 19.3878 26.7875C19.4333 26.769 19.4747 26.7416 19.5094 26.707C19.5441 26.6723 19.5716 26.6311 19.59 26.5857C19.6085 26.5403 19.6177 26.4917 19.6171 26.4427V10.8239C19.6198 10.7739 19.612 10.724 19.5943 10.6772C19.5766 10.6304 19.5494 10.5877 19.5144 10.5519C19.4794 10.5161 19.4374 10.4879 19.3909 10.4691C19.3444 10.4503 19.2946 10.4413 19.2445 10.4427Z" fill="#3BB2B8"/>
<path d="M36.6166 6.24924H33.2676C33.2193 6.24848 33.1713 6.25771 33.1268 6.27639C33.0823 6.29503 33.0421 6.32274 33.0089 6.35766C32.9756 6.39263 32.95 6.43404 32.9336 6.4794C32.9173 6.52472 32.9105 6.57291 32.9138 6.621V15.9339L27.8713 6.48453C27.829 6.41131 27.7677 6.35084 27.6938 6.30943C27.6199 6.26801 27.5362 6.24721 27.4515 6.24924H23.5836C23.5357 6.24914 23.4883 6.25884 23.4444 6.2778C23.4004 6.29677 23.3608 6.32453 23.328 6.3594C23.2953 6.39427 23.2701 6.4355 23.254 6.48048C23.2379 6.52552 23.2313 6.57333 23.2345 6.621V22.2492C23.2306 22.2973 23.2368 22.3456 23.2525 22.3912C23.2683 22.4368 23.2934 22.4786 23.3262 22.5139C23.359 22.5493 23.3988 22.5775 23.4431 22.5968C23.4875 22.616 23.5353 22.6258 23.5836 22.6257H26.9421C26.9916 22.6264 27.0408 22.6171 27.0866 22.5983C27.1324 22.5795 27.1739 22.5517 27.2087 22.5166C27.2435 22.4814 27.2709 22.4396 27.2891 22.3937C27.3073 22.3478 27.316 22.2986 27.3147 22.2492V12.9881L32.3289 22.3998C32.3716 22.4738 32.4337 22.5347 32.5085 22.5762C32.5832 22.6176 32.6679 22.638 32.7534 22.6351H36.6213C36.6712 22.6364 36.7209 22.6275 36.7673 22.6091C36.8137 22.5906 36.8558 22.5629 36.8911 22.5277C36.9264 22.4925 36.9541 22.4505 36.9726 22.4042C36.9911 22.358 37 22.3084 36.9987 22.2586V6.621C36.9994 6.57121 36.9899 6.52176 36.9708 6.47573C36.9517 6.42971 36.9235 6.38801 36.8877 6.35324C36.852 6.31846 36.8095 6.29131 36.7629 6.27343C36.7163 6.25554 36.6665 6.24731 36.6166 6.24924Z" fill="#3BB2B8"/>
<path d="M66.2263 7.26612C64.5551 7.26706 62.9216 7.76188 61.5324 8.68814C60.1428 9.6144 59.0593 10.9306 58.4192 12.4705C57.7786 14.0104 57.6098 15.7051 57.9343 17.3407C58.2584 18.9762 59.0612 20.4792 60.2409 21.6601C61.4206 22.841 62.9244 23.6467 64.5626 23.9756C66.2008 24.3045 67.9004 24.1418 69.4456 23.5081C70.9914 22.8744 72.3145 21.798 73.2475 20.4149C74.1805 19.0318 74.682 17.4039 74.6886 15.7367C74.6966 14.6245 74.4834 13.5216 74.0617 12.4921C73.6395 11.4626 73.0169 10.5269 72.2301 9.73906C71.4428 8.95125 70.507 8.32701 69.4763 7.90254C68.4461 7.47802 67.3414 7.26174 66.2263 7.26612ZM66.2263 20.1367C65.6466 20.1427 65.072 20.0317 64.5367 19.8103C64.0008 19.5889 63.5159 19.2618 63.1107 18.8485C62.7051 18.4352 62.3876 17.9445 62.1772 17.4056C61.9669 16.8668 61.8683 16.2911 61.8867 15.7132C61.8673 15.1342 61.9654 14.5573 62.1739 14.0167C62.3829 13.4762 62.6989 12.9831 63.1027 12.5667C63.5065 12.1504 63.99 11.8193 64.5244 11.5932C65.0593 11.3672 65.6338 11.2506 66.2145 11.2506C66.7952 11.2506 67.3702 11.3672 67.9046 11.5932C68.439 11.8193 68.9225 12.1504 69.3263 12.5667C69.7301 12.9831 70.0461 13.4762 70.2551 14.0167C70.4636 14.5573 70.5617 15.1342 70.5423 15.7132C70.5626 16.2896 70.4659 16.8642 70.2579 17.4024C70.0494 17.9405 69.7343 18.431 69.331 18.8443C68.9277 19.2577 68.4447 19.5853 67.9112 19.8074C67.3777 20.0295 66.8046 20.1415 66.2263 20.1367Z" fill="#3BB2B8"/>
<path d="M69.1875 0.108826C68.387 0.861477 67.3252 1.27481 66.2252 1.26177C65.12 1.2743 64.0521 0.861378 63.2441 0.108826H58.4092C59.0611 1.63823 60.1493 2.94257 61.5384 3.85943C62.928 4.77631 64.5568 5.26516 66.2229 5.26516C67.8889 5.26516 69.5177 4.77631 70.9073 3.85943C72.2964 2.94257 73.3847 1.63823 74.0365 0.108826H69.1875Z" fill="#3BB2B8"/>
<path d="M66.2273 25.9532C64.5476 25.9472 62.9037 26.4415 61.507 27.373C60.1103 28.3044 59.0245 29.6305 58.3877 31.1815H63.166C63.5698 30.7854 64.0481 30.473 64.5735 30.2622C65.099 30.0514 65.6613 29.9464 66.2273 29.9532C66.791 29.9463 67.35 30.0513 67.8721 30.2622C68.3948 30.4731 68.8698 30.7856 69.2698 31.1815H74.0575C73.4221 29.6316 72.3372 28.3062 70.9424 27.3748C69.5476 26.4434 67.9056 25.9484 66.2273 25.9532Z" fill="#22C597"/>
<path d="M9.60876 13.7602C10.2355 13.4414 10.7593 12.9524 11.1198 12.3497C11.4803 11.7469 11.6629 11.0549 11.6465 10.3532C11.6465 8.00022 9.95782 6.14611 7.09461 6.14611H1.21253C1.16443 6.14531 1.11669 6.15453 1.0724 6.17326C1.0281 6.19194 0.988222 6.2197 0.955336 6.25472C0.922449 6.28978 0.897284 6.33128 0.881463 6.3766C0.865642 6.42192 0.859515 6.47006 0.863472 6.51787V22.1602C0.860237 22.2079 0.866869 22.2557 0.882958 22.3007C0.899043 22.3457 0.924241 22.387 0.956982 22.4218C0.989722 22.4567 1.02931 22.4845 1.07327 22.5034C1.11724 22.5224 1.16464 22.5321 1.21253 22.532H6.83989C10.8257 22.532 12.7503 20.6496 12.7503 17.8543C12.7755 16.9163 12.4773 15.9979 11.9056 15.2527C11.3338 14.5076 10.5231 13.9807 9.60876 13.7602ZM4.89178 9.71316H6.22668C7.2314 9.71316 7.84461 10.0426 7.84461 11.0732C7.84461 12.1038 7.2314 12.4849 6.22668 12.4849H4.87291L4.89178 9.71316ZM6.60404 18.9743H4.87291V15.6096H6.60404C7.77385 15.6096 8.61819 16.0049 8.61819 17.2708C8.61819 18.5367 7.75499 18.9743 6.60404 18.9743Z" fill="#22C597"/>
<path d="M19.2445 10.4427H15.8907C15.8424 10.4419 15.7945 10.4512 15.7499 10.4699C15.7055 10.4885 15.6653 10.5162 15.632 10.5511C15.5988 10.5861 15.5732 10.6275 15.5568 10.6729C15.5404 10.7182 15.5337 10.7664 15.5369 10.8145V26.4427C15.5344 26.4906 15.5416 26.5385 15.5582 26.5835C15.5749 26.6286 15.6005 26.6697 15.6336 26.7045C15.6667 26.7393 15.7066 26.767 15.7508 26.7859C15.795 26.8048 15.8426 26.8145 15.8907 26.8145H19.2445C19.2936 26.8151 19.3423 26.8059 19.3878 26.7875C19.4333 26.769 19.4747 26.7416 19.5094 26.707C19.5441 26.6723 19.5716 26.6311 19.59 26.5857C19.6085 26.5403 19.6177 26.4917 19.6171 26.4427V10.8239C19.6198 10.7739 19.612 10.724 19.5943 10.6772C19.5766 10.6304 19.5494 10.5877 19.5144 10.5519C19.4794 10.5161 19.4374 10.4879 19.3909 10.4691C19.3444 10.4503 19.2946 10.4413 19.2445 10.4427Z" fill="#22C597"/>
<path d="M36.6166 6.24924H33.2676C33.2193 6.24848 33.1713 6.25771 33.1268 6.27639C33.0823 6.29503 33.0421 6.32274 33.0089 6.35766C32.9756 6.39263 32.95 6.43404 32.9336 6.4794C32.9173 6.52472 32.9105 6.57291 32.9138 6.621V15.9339L27.8713 6.48453C27.829 6.41131 27.7677 6.35084 27.6938 6.30943C27.6199 6.26801 27.5362 6.24721 27.4515 6.24924H23.5836C23.5357 6.24914 23.4883 6.25884 23.4444 6.2778C23.4004 6.29677 23.3608 6.32453 23.328 6.3594C23.2953 6.39427 23.2701 6.4355 23.254 6.48048C23.2379 6.52552 23.2313 6.57333 23.2345 6.621V22.2492C23.2306 22.2973 23.2368 22.3456 23.2525 22.3912C23.2683 22.4368 23.2934 22.4786 23.3262 22.5139C23.359 22.5493 23.3988 22.5775 23.4431 22.5968C23.4875 22.616 23.5353 22.6258 23.5836 22.6257H26.9421C26.9916 22.6264 27.0408 22.6171 27.0866 22.5983C27.1324 22.5795 27.1739 22.5517 27.2087 22.5166C27.2435 22.4814 27.2709 22.4396 27.2891 22.3937C27.3073 22.3478 27.316 22.2986 27.3147 22.2492V12.9881L32.3289 22.3998C32.3716 22.4738 32.4337 22.5347 32.5085 22.5762C32.5832 22.6176 32.6679 22.638 32.7534 22.6351H36.6213C36.6712 22.6364 36.7209 22.6275 36.7673 22.6091C36.8137 22.5906 36.8558 22.5629 36.8911 22.5277C36.9264 22.4925 36.9541 22.4505 36.9726 22.4042C36.9911 22.358 37 22.3084 36.9987 22.2586V6.621C36.9994 6.57121 36.9899 6.52176 36.9708 6.47573C36.9517 6.42971 36.9235 6.38801 36.8877 6.35324C36.852 6.31846 36.8095 6.29131 36.7629 6.27343C36.7163 6.25554 36.6665 6.24731 36.6166 6.24924Z" fill="#22C597"/>
<path d="M55.6982 16.901H48.5662C48.5195 16.8989 48.4728 16.9067 48.4289 16.9238C48.3855 16.9409 48.3459 16.9669 48.3129 17.0001C48.2803 17.0334 48.2548 17.0732 48.2383 17.1169C48.2214 17.1606 48.2143 17.2073 48.2171 17.254V20.1292C48.2143 20.1759 48.2214 20.2226 48.2383 20.2663C48.2548 20.31 48.2803 20.3498 48.3129 20.383C48.3459 20.4163 48.3855 20.4423 48.4289 20.4594C48.4728 20.4765 48.5195 20.4843 48.5662 20.4822H52.1133C51.9954 21.7198 50.8445 22.8681 48.6652 22.8681C45.9624 22.8681 44.085 21.0187 44.085 18.4445C44.0631 17.8628 44.1604 17.2828 44.3707 16.7399C44.5811 16.197 44.9002 15.7025 45.3086 15.2868C45.7169 14.871 46.2059 14.5427 46.7457 14.3218C47.2856 14.1009 47.8648 13.9922 48.4482 14.0022C49.6265 13.9916 50.769 14.406 51.6652 15.1692C51.7015 15.2097 51.7473 15.2411 51.7978 15.2611C51.8487 15.2811 51.9034 15.2892 51.9577 15.2846C52.0119 15.28 52.0643 15.263 52.111 15.2348C52.1577 15.2067 52.1973 15.1681 52.2265 15.1222L54.1747 13.061C54.4058 12.8069 54.4058 12.5904 54.1747 12.3881C53.4331 11.6111 52.5365 10.9974 51.5431 10.5865C50.5497 10.1756 49.4808 9.97659 48.4058 10.0022C47.2957 10.0084 46.1978 10.2326 45.1746 10.6621C44.1514 11.0916 43.2231 11.718 42.4425 12.5054C40.8662 14.0957 39.9876 16.2456 40.0001 18.4822C40.0126 20.7188 40.9152 22.8588 42.5093 24.4314C44.1033 26.0041 46.2583 26.8805 48.5001 26.8681C53.2171 26.8681 56.0473 23.3575 56.0473 19.0987V17.254C56.0501 17.2073 56.0431 17.1606 56.0261 17.1169C56.0096 17.0732 55.9841 17.0334 55.9515 17.0001C55.9185 16.9669 55.8789 16.9409 55.8355 16.9238C55.7916 16.9067 55.7449 16.8989 55.6982 16.901Z" fill="#22C597"/>
<path d="M66.2263 7.26612C64.5551 7.26706 62.9216 7.76188 61.5324 8.68814C60.1428 9.6144 59.0593 10.9306 58.4192 12.4705C57.7786 14.0104 57.6098 15.7051 57.9343 17.3407C58.2584 18.9762 59.0612 20.4792 60.2409 21.6601C61.4206 22.841 62.9244 23.6467 64.5626 23.9756C66.2008 24.3045 67.9004 24.1418 69.4456 23.5081C70.9914 22.8744 72.3145 21.798 73.2475 20.4149C74.1805 19.0318 74.682 17.4039 74.6886 15.7367C74.6966 14.6245 74.4834 13.5216 74.0617 12.4921C73.6395 11.4626 73.0169 10.5269 72.2301 9.73906C71.4428 8.95125 70.507 8.32701 69.4763 7.90254C68.4461 7.47802 67.3414 7.26174 66.2263 7.26612ZM66.2263 20.1367C65.6466 20.1427 65.072 20.0317 64.5367 19.8103C64.0008 19.5889 63.5159 19.2618 63.1107 18.8485C62.7051 18.4352 62.3876 17.9445 62.1772 17.4056C61.9669 16.8668 61.8683 16.2911 61.8867 15.7132C61.8673 15.1342 61.9654 14.5573 62.1739 14.0167C62.3829 13.4762 62.6989 12.9831 63.1027 12.5667C63.5065 12.1504 63.99 11.8193 64.5244 11.5932C65.0593 11.3672 65.6338 11.2506 66.2145 11.2506C66.7952 11.2506 67.3702 11.3672 67.9046 11.5932C68.439 11.8193 68.9225 12.1504 69.3263 12.5667C69.7301 12.9831 70.0461 13.4762 70.2551 14.0167C70.4636 14.5573 70.5617 15.1342 70.5423 15.7132C70.5626 16.2896 70.4659 16.8642 70.2579 17.4024C70.0494 17.9405 69.7343 18.431 69.331 18.8443C68.9277 19.2577 68.4447 19.5853 67.9112 19.8074C67.3777 20.0295 66.8046 20.1415 66.2263 20.1367Z" fill="#22C597"/>
<path d="M69.1875 0.108826C68.387 0.861477 67.3252 1.27481 66.2252 1.26177C65.12 1.2743 64.0521 0.861378 63.2441 0.108826H58.4092C59.0611 1.63823 60.1493 2.94257 61.5384 3.85943C62.928 4.77631 64.5568 5.26516 66.2229 5.26516C67.8889 5.26516 69.5177 4.77631 70.9073 3.85943C72.2964 2.94257 73.3847 1.63823 74.0365 0.108826H69.1875Z" fill="#22C597"/>
<path d="M0.415543 36.7762C0.415543 36.0274 0.713723 35.3092 1.24449 34.7797C1.77525 34.2502 2.49512 33.9527 3.24573 33.9527C3.60521 33.9462 3.96237 34.0115 4.29614 34.1449C4.62991 34.2782 4.93356 34.4769 5.18912 34.7292C5.20054 34.7402 5.2096 34.7533 5.21582 34.7679C5.222 34.7824 5.22521 34.7981 5.22521 34.8139C5.22521 34.8297 5.222 34.8454 5.21582 34.8599C5.2096 34.8745 5.20054 34.8876 5.18912 34.8986L4.63724 35.4868C4.62662 35.4988 4.61355 35.5085 4.59891 35.5151C4.58428 35.5217 4.5684 35.5251 4.55234 35.5251C4.53628 35.5251 4.5204 35.5217 4.50576 35.5151C4.49112 35.5085 4.47805 35.4988 4.46743 35.4868C4.13497 35.1868 3.70346 35.0193 3.25517 35.0162C2.80982 35.0394 2.39038 35.2322 2.08336 35.5549C1.77635 35.8775 1.60518 36.3055 1.60518 36.7504C1.60518 37.1953 1.77635 37.6232 2.08336 37.9458C2.39038 38.2685 2.80982 38.4613 3.25517 38.4845C3.70346 38.4814 4.13497 38.3139 4.46743 38.0139C4.47805 38.0019 4.49112 37.9922 4.50576 37.9857C4.5204 37.9791 4.53628 37.9756 4.55234 37.9756C4.5684 37.9756 4.58428 37.9791 4.59891 37.9857C4.61355 37.9922 4.62662 38.0019 4.63724 38.0139L5.18912 38.6492C5.20096 38.6589 5.21054 38.6711 5.2171 38.6849C5.22365 38.6988 5.22705 38.7139 5.22705 38.7292C5.22705 38.7445 5.22365 38.7596 5.2171 38.7734C5.21054 38.7873 5.20096 38.7995 5.18912 38.8092C4.93776 39.0661 4.63676 39.2695 4.30435 39.407C3.97193 39.5445 3.615 39.6133 3.25517 39.6092C2.88191 39.6104 2.5121 39.538 2.16702 39.3961C1.82194 39.2541 1.5084 39.0455 1.24447 38.7822C0.980539 38.5189 0.771421 38.2061 0.629157 37.8618C0.486898 37.5176 0.414297 37.1486 0.415543 36.7762Z" fill="#171717"/>
<path d="M7.27939 39.3742L9.12845 34.0942C9.14067 34.0658 9.16109 34.0416 9.18718 34.0248C9.21321 34.0081 9.24368 33.9995 9.27467 34.0001H10.2181C10.2491 33.9995 10.2795 34.0081 10.3056 34.0248C10.3317 34.0416 10.3521 34.0658 10.3643 34.0942L12.2134 39.3742C12.2417 39.4542 12.2134 39.5107 12.1096 39.5107H11.1662C11.1359 39.5139 11.1054 39.5062 11.0803 39.4889C11.0552 39.4717 11.0371 39.446 11.0294 39.4166L10.7888 38.5883H8.70864L8.43977 39.4024C8.43217 39.431 8.41482 39.456 8.39071 39.4732C8.36661 39.4904 8.33727 39.4986 8.30769 39.4966H7.3643C7.28883 39.5295 7.24637 39.4542 7.27939 39.3742ZM10.4681 37.6048L9.75109 35.4166L9.02939 37.6048H10.4681Z" fill="#171717"/>
<path d="M17.3213 39.4308L16.1562 37.5813H15.7505V39.3931C15.7512 39.4087 15.7486 39.4244 15.7429 39.4389C15.7372 39.4535 15.7285 39.4667 15.7174 39.4778C15.7064 39.4888 15.6931 39.4975 15.6785 39.5032C15.6639 39.5088 15.6482 39.5114 15.6326 39.5108H14.7411C14.7254 39.5114 14.7098 39.5088 14.6952 39.5032C14.6806 39.4975 14.6673 39.4888 14.6562 39.4778C14.6451 39.4667 14.6364 39.4535 14.6308 39.4389C14.6251 39.4244 14.6225 39.4087 14.6231 39.3931V34.1178C14.6225 34.1022 14.6251 34.0866 14.6308 34.072C14.6364 34.0574 14.6451 34.0442 14.6562 34.0331C14.6673 34.0221 14.6806 34.0134 14.6952 34.0077C14.7098 34.0021 14.7254 33.9995 14.7411 34.0002H16.4062C17.7175 34.0002 18.3496 34.7296 18.3496 35.7884C18.379 36.1486 18.2869 36.5083 18.0877 36.8102C17.8885 37.1122 17.5938 37.3388 17.2505 37.4543L18.4911 39.3696C18.543 39.4543 18.4911 39.5108 18.4109 39.5108H17.4533C17.4261 39.5105 17.3995 39.503 17.3763 39.4889C17.353 39.4748 17.334 39.4547 17.3213 39.4308ZM16.3779 36.579C16.8496 36.579 17.2741 36.4143 17.2741 35.7884C17.2741 35.1625 16.859 34.9978 16.3779 34.9978H15.7505V36.579H16.3779Z" fill="#171717"/>
<path d="M20.9459 39.3931V34.1178C20.9452 34.1022 20.9478 34.0866 20.9535 34.072C20.9592 34.0574 20.9679 34.0442 20.979 34.0331C20.99 34.0221 21.0033 34.0134 21.0179 34.0077C21.0325 34.0021 21.0482 33.9995 21.0638 34.0002H22.6865C24.5355 34.0002 25.5166 35.2049 25.5166 36.7531C25.5166 38.3013 24.5308 39.5296 22.6865 39.5296H21.0638C21.0464 39.5307 21.0289 39.5277 21.0127 39.521C20.9966 39.5142 20.9823 39.5038 20.9708 39.4906C20.9594 39.4774 20.9512 39.4617 20.9469 39.4448C20.9425 39.4279 20.9422 39.4102 20.9459 39.3931ZM22.6723 38.5084C23.7902 38.5084 24.361 37.8872 24.361 36.7531C24.361 35.619 23.7902 34.9978 22.6723 34.9978H22.0733V38.5084H22.6723Z" fill="#171717"/>
<path d="M30.9287 36.7765C30.9287 36.0277 31.2269 35.3095 31.7577 34.78C32.2884 34.2504 33.0083 33.953 33.7589 33.953C34.1193 33.9447 34.4777 34.0093 34.8124 34.1427C35.1472 34.2761 35.4515 34.4757 35.707 34.7294C35.719 34.74 35.7287 34.7531 35.7353 34.7677C35.7419 34.7823 35.7454 34.7981 35.7454 34.8141C35.7454 34.8302 35.7419 34.846 35.7353 34.8606C35.7287 34.8752 35.719 34.8883 35.707 34.8989L35.1551 35.4871C35.1449 35.499 35.1323 35.5085 35.1181 35.5151C35.1038 35.5217 35.0883 35.5251 35.0726 35.5251C35.0569 35.5251 35.0414 35.5217 35.0271 35.5151C35.0129 35.5085 35.0002 35.499 34.99 35.4871C34.6571 35.1878 34.2259 35.0204 33.7778 35.0165C33.3324 35.0397 32.913 35.2325 32.606 35.5551C32.2989 35.8778 32.1278 36.3057 32.1278 36.7506C32.1278 37.1955 32.2989 37.6234 32.606 37.9461C32.913 38.2688 33.3324 38.4616 33.7778 38.4847C34.2259 38.4808 34.6571 38.3134 34.99 38.0141C35.0002 38.0022 35.0129 37.9927 35.0271 37.9861C35.0414 37.9796 35.0569 37.9762 35.0726 37.9762C35.0883 37.9762 35.1038 37.9796 35.1181 37.9861C35.1323 37.9927 35.1449 38.0022 35.1551 38.0141L35.707 38.6024C35.7189 38.6121 35.7284 38.6243 35.735 38.6381C35.7415 38.652 35.7449 38.6671 35.7449 38.6824C35.7449 38.6977 35.7415 38.7128 35.735 38.7266C35.7284 38.7404 35.7189 38.7527 35.707 38.7624C35.4569 39.0196 35.1568 39.2232 34.825 39.3608C34.4933 39.4983 34.137 39.5669 33.7778 39.5624C33.0304 39.5674 32.3114 39.2773 31.7776 38.7554C31.2438 38.2334 30.9387 37.5221 30.9287 36.7765Z" fill="#171717"/>
<path d="M40.915 39.4308L39.7499 37.5813H39.3443V39.3931C39.3449 39.4087 39.3423 39.4243 39.3366 39.4389C39.331 39.4535 39.3223 39.4667 39.3112 39.4778C39.3001 39.4888 39.2869 39.4975 39.2722 39.5032C39.2576 39.5088 39.242 39.5114 39.2263 39.5108H38.3348C38.3192 39.5114 38.3035 39.5088 38.2889 39.5032C38.2743 39.4975 38.2611 39.4888 38.25 39.4778C38.2389 39.4667 38.2302 39.4535 38.2245 39.4389C38.2188 39.4243 38.2162 39.4087 38.2169 39.3931V34.1178C38.2162 34.1022 38.2188 34.0866 38.2245 34.072C38.2302 34.0574 38.2389 34.0442 38.25 34.0331C38.2611 34.0221 38.2743 34.0134 38.2889 34.0077C38.3035 34.0021 38.3192 33.9995 38.3348 34.0002H39.9999C41.3112 34.0002 41.9386 34.7296 41.9386 35.7884C41.9684 36.148 41.8769 36.5073 41.6786 36.8091C41.4803 37.1109 41.1867 37.338 40.8443 37.4543L42.0848 39.3696C42.1367 39.4543 42.0848 39.5108 42.0046 39.5108H41.0612C41.0317 39.5132 41.002 39.5069 40.9761 39.4927C40.9501 39.4785 40.9288 39.457 40.915 39.4308ZM39.9716 36.579C40.4433 36.579 40.8678 36.4143 40.8678 35.7884C40.8678 35.1625 40.4527 34.9978 39.9716 34.9978H39.3537V36.579H39.9716Z" fill="#171717"/>
<path d="M44.5387 39.3932V34.1179C44.5381 34.1023 44.5407 34.0867 44.5464 34.0721C44.552 34.0576 44.5607 34.0443 44.5718 34.0333C44.5829 34.0222 44.5961 34.0136 44.6108 34.0079C44.6254 34.0022 44.641 33.9996 44.6566 34.0003H47.4868C47.5024 33.9996 47.518 34.0022 47.5326 34.0079C47.5472 34.0136 47.5604 34.0222 47.5717 34.0333C47.5826 34.0443 47.5916 34.0576 47.5972 34.0721C47.6029 34.0867 47.6052 34.1023 47.6048 34.1179V34.8803C47.6052 34.8959 47.6029 34.9115 47.5972 34.9261C47.5916 34.9407 47.5826 34.9539 47.5717 34.9649C47.5604 34.976 47.5472 34.9847 47.5326 34.9904C47.518 34.996 47.5024 34.9986 47.4868 34.9979H45.6897V36.2356H47.3831C47.3986 36.2349 47.4142 36.2375 47.4288 36.2432C47.4434 36.2488 47.4566 36.2575 47.468 36.2686C47.4788 36.2796 47.4878 36.2929 47.4934 36.3074C47.4991 36.322 47.5015 36.3376 47.501 36.3532V37.1156C47.5015 37.1312 47.4991 37.1468 47.4934 37.1614C47.4878 37.176 47.4788 37.1892 47.468 37.2002C47.4566 37.2113 47.4434 37.22 47.4288 37.2256C47.4142 37.2313 47.3986 37.2339 47.3831 37.2332H45.6897V38.5226H47.4868C47.5024 38.522 47.518 38.5246 47.5326 38.5302C47.5472 38.5359 47.5604 38.5446 47.5717 38.5556C47.5826 38.5667 47.5916 38.5799 47.5972 38.5945C47.6029 38.6091 47.6052 38.6247 47.6048 38.6403V39.4073C47.6052 39.423 47.6029 39.4386 47.5972 39.4531C47.5916 39.4677 47.5826 39.4809 47.5717 39.492C47.5604 39.5031 47.5472 39.5117 47.5326 39.5174C47.518 39.5231 47.5024 39.5257 47.4868 39.525H44.6566C44.6397 39.5259 44.6227 39.5231 44.607 39.5166C44.5913 39.5101 44.5772 39.5001 44.5659 39.4874C44.5545 39.4748 44.5462 39.4597 44.5415 39.4434C44.5368 39.4271 44.5358 39.41 44.5387 39.3932Z" fill="#171717"/>
<path d="M49.8304 39.3744L51.6747 34.0944C51.6879 34.0656 51.7091 34.0412 51.736 34.0245C51.7629 34.0077 51.7941 33.9993 51.8257 34.0003H52.7691C52.8007 33.9987 52.8323 34.0068 52.8591 34.0236C52.8865 34.0405 52.9077 34.0652 52.92 34.0944L54.7643 39.3744C54.7974 39.4544 54.7643 39.5108 54.6653 39.5108H53.7219C53.6922 39.5129 53.6629 39.5047 53.6389 39.4875C53.6148 39.4703 53.5974 39.4453 53.5898 39.4167L53.3398 38.5885H51.2596L50.9908 39.4026C50.9832 39.432 50.9648 39.4577 50.9398 39.475C50.9148 39.4923 50.8841 39.5 50.854 39.4967H49.9106C49.8351 39.5297 49.7974 39.4544 49.8304 39.3744ZM53.0191 37.605L52.2974 35.4167L51.5804 37.605H53.0191Z" fill="#171717"/>
<path d="M57.3494 39.3932V34.9979H56.2645C56.2489 34.9986 56.2333 34.996 56.2187 34.9904C56.2041 34.9847 56.1909 34.976 56.1796 34.9649C56.1687 34.9539 56.1598 34.9407 56.1541 34.9261C56.1484 34.9115 56.1461 34.8959 56.1465 34.8803V34.1179C56.1461 34.1023 56.1484 34.0867 56.1541 34.0721C56.1598 34.0576 56.1687 34.0443 56.1796 34.0333C56.1909 34.0222 56.2041 34.0136 56.2187 34.0079C56.2333 34.0022 56.2489 33.9996 56.2645 34.0003H59.5664C59.5819 33.9996 59.5975 34.0022 59.6121 34.0079C59.6267 34.0136 59.6399 34.0222 59.6513 34.0333C59.6621 34.0443 59.6711 34.0576 59.6767 34.0721C59.6824 34.0867 59.6848 34.1023 59.6843 34.1179V34.8803C59.6848 34.8959 59.6824 34.9115 59.6767 34.9261C59.6711 34.9407 59.6621 34.9539 59.6513 34.9649C59.6399 34.976 59.6267 34.9847 59.6121 34.9904C59.5975 34.996 59.5819 34.9986 59.5664 34.9979H58.4909V39.3932C58.4914 39.4089 58.489 39.4245 58.4833 39.439C58.4777 39.4536 58.4687 39.4668 58.4579 39.4779C58.4465 39.4889 58.4333 39.4976 58.4187 39.5033C58.4041 39.5089 58.3885 39.5115 58.373 39.5109H57.4814C57.4645 39.5137 57.4475 39.5128 57.431 39.5081C57.4149 39.5034 57.3998 39.4951 57.3871 39.4838C57.3744 39.4725 57.3645 39.4585 57.3579 39.4428C57.3513 39.4271 57.3484 39.4102 57.3494 39.3932Z" fill="#171717"/>
<path d="M61.5508 36.7768C61.5508 36.2184 61.7168 35.6725 62.0277 35.2082C62.3385 34.7438 62.781 34.3819 63.2979 34.1682C63.8149 33.9545 64.3843 33.8986 64.9333 34.0076C65.4819 34.1165 65.9866 34.3854 66.3824 34.7803C66.7781 35.1752 67.0475 35.6783 67.1569 36.226C67.2659 36.7737 67.2097 37.3414 66.9956 37.8574C66.7814 38.3733 66.4187 38.8142 65.9531 39.1245C65.488 39.4348 64.9409 39.6004 64.381 39.6004C63.6305 39.6004 62.9107 39.3029 62.3795 38.7734C61.8489 38.2438 61.5508 37.5257 61.5508 36.7768ZM64.381 38.5086C64.7272 38.517 65.0678 38.4222 65.3597 38.2365C65.6517 38.0506 65.8814 37.7822 66.0196 37.4654C66.1574 37.1487 66.1979 36.7981 66.1352 36.4583C66.0725 36.1186 65.9097 35.8053 65.6678 35.5583C65.4253 35.3114 65.1149 35.1422 64.7758 35.0722C64.4371 35.0022 64.0847 35.0347 63.7645 35.1655C63.4437 35.2963 63.1697 35.5195 62.9772 35.8066C62.7843 36.0936 62.6819 36.4314 62.6829 36.7768C62.6753 37.0039 62.714 37.2302 62.7965 37.442C62.8791 37.6537 63.0041 37.8464 63.164 38.0084C63.3239 38.1704 63.5149 38.2983 63.7258 38.3843C63.9366 38.4702 64.1626 38.5126 64.3904 38.5086H64.381Z" fill="#171717"/>
<path d="M72.4443 39.4308L71.2792 37.5813H70.8782V39.3931C70.882 39.4106 70.8815 39.4287 70.8773 39.446C70.8726 39.4634 70.8641 39.4794 70.8518 39.4927C70.84 39.506 70.8249 39.5163 70.8084 39.5227C70.7914 39.5291 70.7735 39.5315 70.7556 39.5296H69.8641C69.8485 39.5302 69.8329 39.5276 69.8183 39.522C69.8037 39.5163 69.7905 39.5076 69.7792 39.4966C69.7683 39.4855 69.7594 39.4723 69.7537 39.4577C69.748 39.4432 69.7457 39.4276 69.7462 39.4119V34.1178C69.7457 34.1022 69.748 34.0866 69.7537 34.072C69.7594 34.0574 69.7683 34.0442 69.7792 34.0331C69.7905 34.0221 69.8037 34.0134 69.8183 34.0077C69.8329 34.0021 69.8485 33.9995 69.8641 34.0002H71.5292C72.8358 34.0002 73.4678 34.7296 73.4678 35.7884C73.498 36.1488 73.4065 36.5089 73.207 36.8109C73.0079 37.113 72.7127 37.3395 72.3688 37.4543L73.6094 39.3696C73.666 39.4543 73.6094 39.5107 73.5292 39.5107H72.5858C72.557 39.5117 72.5287 39.5048 72.5037 39.4907C72.4787 39.4765 72.4579 39.4558 72.4443 39.4308ZM71.5009 36.579C71.9726 36.579 72.4018 36.4143 72.4018 35.7884C72.4018 35.1625 71.982 34.9978 71.5009 34.9978H70.8877V36.579H71.5009Z" fill="#171717"/>
</g>
<defs>
<clipPath id="clip0_1285_537">
<rect width="75" height="40" fill="white"/>
</clipPath>
</defs>
</svg>
