<svg width="10" height="14" viewBox="0 0 10 14" fill="none" xmlns="http://www.w3.org/2000/svg">
<path d="M7.99902 0.5L8.08203 0.503906C8.27271 0.523074 8.45214 0.607489 8.58887 0.744141C8.72576 0.881034 8.81005 1.06097 8.8291 1.25195L8.83301 1.33398V12C8.8326 12.2209 8.74506 12.4327 8.58887 12.5889C8.43253 12.7452 8.22011 12.8328 7.99902 12.833H1.33398C1.1129 12.8328 0.900474 12.7452 0.744141 12.5889C0.607489 12.4521 0.523074 12.2727 0.503906 12.082L0.5 11.999V1.33398C0.500253 1.1129 0.587808 0.900473 0.744141 0.744141C0.881042 0.60724 1.06096 0.522955 1.25195 0.503906L1.33398 0.5H7.99902ZM0.833008 12.5H8.5V0.833008H0.833008V12.5ZM2.66699 2.5H6.66699C6.711 2.50009 6.75302 2.51775 6.78418 2.54883C6.81544 2.58008 6.83301 2.62279 6.83301 2.66699C6.83292 2.71108 6.81536 2.753 6.78418 2.78418C6.753 2.81536 6.71108 2.83292 6.66699 2.83301H2.66699C2.62279 2.83301 2.58008 2.81544 2.54883 2.78418C2.51775 2.75302 2.50009 2.711 2.5 2.66699C2.5 2.62279 2.51757 2.58008 2.54883 2.54883C2.58008 2.51757 2.62279 2.5 2.66699 2.5Z" stroke="#4F46E5"/>
</svg>
