<svg width="1440" height="505" viewBox="0 0 1440 505" fill="none" xmlns="http://www.w3.org/2000/svg">
<g clip-path="url(#clip0_296_27163)">
<rect width="1440" height="505" fill="#EFF6FF"/>
<g opacity="0.4">
<path d="M1080 446.621C1077.45 442.206 1078.96 436.561 1083.38 434.012L1171.31 383.242C1175.73 380.693 1181.37 382.206 1183.92 386.621L1244.69 491.876C1247.24 496.291 1245.73 501.937 1241.31 504.486L1153.38 555.255C1148.96 557.804 1143.32 556.291 1140.77 551.876L1080 446.621Z" fill="white"/>
<path d="M1083.47 434.178L1171.41 383.409C1175.73 380.913 1181.26 382.394 1183.75 386.717L1244.52 491.973C1247.02 496.296 1245.54 501.823 1241.22 504.319L1153.28 555.089C1148.96 557.584 1143.43 556.103 1140.93 551.78L1080.16 446.525C1077.67 442.202 1079.15 436.674 1083.47 434.178Z" stroke="#C7D2FE" stroke-opacity="0.6" stroke-width="0.384615"/>
<path d="M1100.2 441.617C1098.82 439.226 1099.64 436.168 1102.03 434.787L1162.66 399.787C1165.05 398.406 1168.1 399.226 1169.49 401.617V401.617C1170.87 404.009 1170.05 407.067 1167.66 408.447L1107.03 443.447C1104.64 444.828 1101.58 444.009 1100.2 441.617V441.617Z" fill="#E4EAFF"/>
<rect x="1109.04" y="476.928" width="20" height="20" rx="3.07692" transform="rotate(-30 1109.04 476.928)" fill="#D8DFFE" stroke="white" stroke-width="0.384615"/>
<rect x="1099.04" y="459.607" width="20" height="20" rx="3.07692" transform="rotate(-30 1099.04 459.607)" fill="#D8DFFE" stroke="white" stroke-width="0.384615"/>
<rect x="1119.04" y="494.248" width="20" height="20" rx="3.07692" transform="rotate(-30 1119.04 494.248)" fill="#D8DFFE" stroke="white" stroke-width="0.384615"/>
<rect x="1129.04" y="511.568" width="20" height="20" rx="3.07692" transform="rotate(-30 1129.04 511.568)" fill="#D8DFFE" stroke="white" stroke-width="0.384615"/>
<rect x="1126.36" y="466.928" width="20" height="20" rx="3.07692" transform="rotate(-30 1126.36 466.928)" fill="#D8DFFE" stroke="white" stroke-width="0.384615"/>
<rect x="1116.36" y="449.607" width="20" height="20" rx="3.07692" transform="rotate(-30 1116.36 449.607)" fill="#D8DFFE" stroke="white" stroke-width="0.384615"/>
<rect x="1136.36" y="484.248" width="20" height="20" rx="3.07692" transform="rotate(-30 1136.36 484.248)" fill="#D8DFFE" stroke="white" stroke-width="0.384615"/>
<rect x="1146.36" y="501.568" width="20" height="20" rx="3.07692" transform="rotate(-30 1146.36 501.568)" fill="#D8DFFE" stroke="white" stroke-width="0.384615"/>
<rect x="1143.68" y="456.928" width="20" height="20" rx="3.07692" transform="rotate(-30 1143.68 456.928)" fill="#D8DFFE" stroke="white" stroke-width="0.384615"/>
<rect x="1133.68" y="439.607" width="20" height="20" rx="3.07692" transform="rotate(-30 1133.68 439.607)" fill="#D8DFFE" stroke="white" stroke-width="0.384615"/>
<rect x="1153.68" y="474.248" width="20" height="20" rx="3.07692" transform="rotate(-30 1153.68 474.248)" fill="#C7D2FE" stroke="white" stroke-width="0.384615"/>
<rect x="1163.68" y="491.568" width="20" height="20" rx="3.07692" transform="rotate(-30 1163.68 491.568)" fill="#D8DFFE" stroke="white" stroke-width="0.384615"/>
<rect x="1173.68" y="508.889" width="20" height="20" rx="3.07692" transform="rotate(-30 1173.68 508.889)" fill="#D8DFFE" stroke="white" stroke-width="0.384615"/>
<rect x="1161" y="446.928" width="20" height="20" rx="3.07692" transform="rotate(-30 1161 446.928)" fill="#D8DFFE" stroke="white" stroke-width="0.384615"/>
<rect x="1151" y="429.607" width="20" height="20" rx="3.07692" transform="rotate(-30 1151 429.607)" fill="#D8DFFE" stroke="white" stroke-width="0.384615"/>
<rect x="1171" y="464.248" width="20" height="20" rx="3.07692" transform="rotate(-30 1171 464.248)" fill="#D8DFFE" stroke="white" stroke-width="0.384615"/>
<rect x="1181" y="481.568" width="20" height="20" rx="3.07692" transform="rotate(-30 1181 481.568)" fill="#D8DFFE" stroke="white" stroke-width="0.384615"/>
<rect x="1191" y="498.889" width="20" height="20" rx="3.07692" transform="rotate(-30 1191 498.889)" fill="#D8DFFE" stroke="white" stroke-width="0.384615"/>
<rect x="1178.32" y="436.928" width="20" height="20" rx="3.07692" transform="rotate(-30 1178.32 436.928)" fill="#D8DFFE" stroke="white" stroke-width="0.384615"/>
<rect x="1168.32" y="419.607" width="20" height="20" rx="3.07692" transform="rotate(-30 1168.32 419.607)" fill="#D8DFFE" stroke="white" stroke-width="0.384615"/>
<rect x="1188.32" y="454.248" width="20" height="20" rx="3.07692" transform="rotate(-30 1188.32 454.248)" fill="#D8DFFE" stroke="white" stroke-width="0.384615"/>
<rect x="1198.32" y="471.568" width="20" height="20" rx="3.07692" transform="rotate(-30 1198.32 471.568)" fill="#D8DFFE" stroke="white" stroke-width="0.384615"/>
<rect x="1208.32" y="488.889" width="20" height="20" rx="3.07692" transform="rotate(-30 1208.32 488.889)" fill="#D8DFFE" stroke="white" stroke-width="0.384615"/>
</g>
<g opacity="0.4">
<path d="M1163.93 327.994C1161.38 323.579 1162.9 317.934 1167.31 315.385L1255.25 264.615C1259.66 262.066 1265.31 263.579 1267.85 267.994L1339.01 391.236C1341.56 395.651 1340.04 401.297 1335.63 403.846L1247.7 454.615C1243.28 457.164 1237.63 455.651 1235.09 451.236L1163.93 327.994Z" fill="#E5EBFF"/>
<path d="M1167.41 315.551L1255.34 264.782C1259.66 262.286 1265.19 263.767 1267.69 268.09L1338.84 391.332C1341.34 395.655 1339.86 401.183 1335.53 403.679L1247.6 454.448C1243.28 456.944 1237.75 455.463 1235.25 451.14L1164.1 327.898C1161.6 323.575 1163.08 318.047 1167.41 315.551Z" stroke="#C7D2FE" stroke-opacity="0.6" stroke-width="0.384615"/>
<path d="M1175.48 327.99C1174.1 325.599 1174.92 322.541 1177.31 321.16L1255.25 276.16C1257.64 274.779 1260.7 275.599 1262.08 277.99V277.99C1263.46 280.382 1262.64 283.44 1260.25 284.82L1182.31 329.82C1179.92 331.201 1176.86 330.382 1175.48 327.99V327.99Z" fill="#F5F7FF"/>
<path d="M1191 336.881L1199.66 331.881L1204.66 340.541L1196 345.541L1191 336.881Z" fill="#C7D2FE"/>
<path d="M1206.59 327.881L1215.25 322.881L1220.25 331.541L1211.59 336.541L1206.59 327.881Z" fill="#C7D2FE"/>
<path d="M1222.18 318.881L1230.84 313.881L1235.84 322.541L1227.18 327.541L1222.18 318.881Z" fill="#C7D2FE"/>
<path d="M1237.77 309.881L1246.43 304.881L1251.43 313.541L1242.77 318.541L1237.77 309.881Z" fill="#C7D2FE"/>
<path d="M1253.36 300.881L1262.02 295.881L1267.02 304.541L1258.36 309.541L1253.36 300.881Z" fill="#C7D2FE"/>
<path d="M1197.48 366.096C1195.27 362.27 1196.58 357.377 1200.4 355.168V355.168C1204.23 352.959 1209.12 354.27 1211.33 358.096V358.096C1213.54 361.923 1212.23 366.815 1208.4 369.024V369.024C1204.58 371.234 1199.69 369.923 1197.48 366.096V366.096Z" fill="#C7D2FE" stroke="#E5E7EB" stroke-width="0.384615"/>
<path d="M1207.98 384.282C1205.77 380.455 1207.08 375.563 1210.9 373.354V373.354C1214.73 371.144 1219.62 372.455 1221.83 376.282V376.282C1224.04 380.108 1222.73 385.001 1218.9 387.21V387.21C1215.08 389.419 1210.19 388.108 1207.98 384.282V384.282Z" fill="#C7D2FE" stroke="#E5E7EB" stroke-width="0.384615"/>
<path d="M1218.48 402.469C1216.27 398.643 1217.58 393.75 1221.4 391.541V391.541C1225.23 389.332 1230.12 390.643 1232.33 394.469V394.469C1234.54 398.296 1233.23 403.188 1229.4 405.397V405.397C1225.58 407.607 1220.69 406.296 1218.48 402.469V402.469Z" fill="#C7D2FE" stroke="#E5E7EB" stroke-width="0.384615"/>
<path d="M1228.98 420.655C1226.77 416.828 1228.08 411.936 1231.9 409.727V409.727C1235.73 407.517 1240.62 408.828 1242.83 412.655V412.655C1245.04 416.481 1243.73 421.374 1239.9 423.583V423.583C1236.08 425.792 1231.19 424.481 1228.98 420.655V420.655Z" fill="#C7D2FE" stroke="#E5E7EB" stroke-width="0.384615"/>
<path d="M1215.66 355.596C1213.45 351.77 1214.77 346.877 1218.59 344.668V344.668C1222.42 342.459 1227.31 343.77 1229.52 347.596V347.596C1231.73 351.423 1230.42 356.315 1226.59 358.524V358.524C1222.77 360.734 1217.87 359.423 1215.66 355.596V355.596Z" fill="#C7D2FE" stroke="#E5E7EB" stroke-width="0.384615"/>
<path d="M1226.16 373.784C1223.95 369.957 1225.27 365.065 1229.09 362.855V362.855C1232.92 360.646 1237.81 361.957 1240.02 365.784V365.784C1242.23 369.61 1240.92 374.503 1237.09 376.712V376.712C1233.27 378.921 1228.37 377.61 1226.16 373.784V373.784Z" fill="#C7D2FE" stroke="#E5E7EB" stroke-width="0.384615"/>
<path d="M1236.66 391.969C1234.45 388.143 1235.77 383.25 1239.59 381.041V381.041C1243.42 378.832 1248.31 380.143 1250.52 383.969V383.969C1252.73 387.796 1251.42 392.688 1247.59 394.897V394.897C1243.77 397.107 1238.87 395.796 1236.66 391.969V391.969Z" fill="#C7D2FE" stroke="#E5E7EB" stroke-width="0.384615"/>
<path d="M1247.16 410.157C1244.95 406.33 1246.27 401.438 1250.09 399.229V399.229C1253.92 397.019 1258.81 398.33 1261.02 402.157V402.157C1263.23 405.983 1261.92 410.876 1258.09 413.085V413.085C1254.27 415.294 1249.37 413.983 1247.16 410.157V410.157Z" fill="#C7D2FE" stroke="#E5E7EB" stroke-width="0.384615"/>
<path d="M1233.85 345.096C1231.64 341.27 1232.95 336.377 1236.78 334.168V334.168C1240.61 331.959 1245.5 333.27 1247.71 337.096V337.096C1249.92 340.923 1248.61 345.815 1244.78 348.024V348.024C1240.95 350.234 1236.06 348.923 1233.85 345.096V345.096Z" fill="#C7D2FE" stroke="#E5E7EB" stroke-width="0.384615"/>
<path d="M1244.35 363.284C1242.14 359.457 1243.45 354.565 1247.28 352.355V352.355C1251.11 350.146 1256 351.457 1258.21 355.284V355.284C1260.42 359.11 1259.11 364.003 1255.28 366.212V366.212C1251.45 368.421 1246.56 367.11 1244.35 363.284V363.284Z" fill="#C7D2FE" stroke="#E5E7EB" stroke-width="0.384615"/>
<path d="M1254.85 381.469C1252.64 377.643 1253.95 372.75 1257.78 370.541V370.541C1261.61 368.332 1266.5 369.643 1268.71 373.469V373.469C1270.92 377.296 1269.61 382.188 1265.78 384.397V384.397C1261.95 386.607 1257.06 385.296 1254.85 381.469V381.469Z" fill="#C7D2FE" stroke="#E5E7EB" stroke-width="0.384615"/>
<path d="M1265.35 399.657C1263.14 395.83 1264.45 390.938 1268.28 388.729V388.729C1272.11 386.519 1277 387.83 1279.21 391.657V391.657C1281.42 395.483 1280.11 400.376 1276.28 402.585V402.585C1272.45 404.794 1267.56 403.483 1265.35 399.657V399.657Z" fill="#C7D2FE" stroke="#E5E7EB" stroke-width="0.384615"/>
<path d="M1252.04 334.596C1249.83 330.77 1251.14 325.877 1254.96 323.668V323.668C1258.79 321.459 1263.68 322.77 1265.89 326.596V326.596C1268.1 330.423 1266.79 335.315 1262.96 337.524V337.524C1259.14 339.734 1254.24 338.423 1252.04 334.596V334.596Z" fill="#C7D2FE" stroke="#E5E7EB" stroke-width="0.384615"/>
<path d="M1262.54 352.782C1260.33 348.955 1261.64 344.063 1265.46 341.854V341.854C1269.29 339.644 1274.18 340.955 1276.39 344.782V344.782C1278.6 348.608 1277.29 353.501 1273.46 355.71V355.71C1269.64 357.919 1264.74 356.608 1262.54 352.782V352.782Z" fill="#C7D2FE" stroke="#E5E7EB" stroke-width="0.384615"/>
<path d="M1273.04 370.969C1270.83 367.143 1272.14 362.25 1275.96 360.041V360.041C1279.79 357.832 1284.68 359.143 1286.89 362.969V362.969C1289.1 366.796 1287.79 371.688 1283.96 373.897V373.897C1280.14 376.107 1275.24 374.796 1273.04 370.969V370.969Z" fill="#C7D2FE" stroke="#E5E7EB" stroke-width="0.384615"/>
<path d="M1283.54 389.155C1281.33 385.328 1282.64 380.436 1286.46 378.227V378.227C1290.29 376.017 1295.18 377.328 1297.39 381.155V381.155C1299.6 384.981 1298.29 389.874 1294.46 392.083V392.083C1290.64 394.292 1285.74 392.981 1283.54 389.155V389.155Z" fill="#C7D2FE" stroke="#E5E7EB" stroke-width="0.384615"/>
<path d="M1270.22 324.096C1268.01 320.27 1269.32 315.377 1273.15 313.168V313.168C1276.98 310.959 1281.87 312.27 1284.08 316.096V316.096C1286.29 319.923 1284.98 324.815 1281.15 327.024V327.024C1277.32 329.234 1272.43 327.923 1270.22 324.096V324.096Z" fill="#C7D2FE" stroke="#E5E7EB" stroke-width="0.384615"/>
<path d="M1280.72 342.282C1278.51 338.455 1279.82 333.563 1283.65 331.354V331.354C1287.48 329.144 1292.37 330.455 1294.58 334.282V334.282C1296.79 338.108 1295.48 343.001 1291.65 345.21V345.21C1287.82 347.419 1282.93 346.108 1280.72 342.282V342.282Z" fill="#C7D2FE" stroke="#E5E7EB" stroke-width="0.384615"/>
<path d="M1291.22 360.469C1289.01 356.643 1290.32 351.75 1294.15 349.541V349.541C1297.98 347.332 1302.87 348.643 1305.08 352.469V352.469C1307.29 356.296 1305.98 361.188 1302.15 363.397V363.397C1298.32 365.607 1293.43 364.296 1291.22 360.469V360.469Z" fill="#C7D2FE" stroke="#E5E7EB" stroke-width="0.384615"/>
<path d="M1301.72 378.655C1299.51 374.828 1300.82 369.936 1304.65 367.727V367.727C1308.48 365.517 1313.37 366.828 1315.58 370.655V370.655C1317.79 374.481 1316.48 379.374 1312.65 381.583V381.583C1308.82 383.792 1303.93 382.481 1301.72 378.655V378.655Z" fill="#C7D2FE" stroke="#E5E7EB" stroke-width="0.384615"/>
<path d="M1239.36 438.643C1237.15 434.817 1238.46 429.924 1242.29 427.715V427.715C1246.11 425.506 1251.01 426.817 1253.22 430.643V430.643C1255.42 434.469 1254.11 439.362 1250.29 441.571V441.571C1246.46 443.78 1241.57 442.469 1239.36 438.643V438.643Z" fill="#C7D2FE" stroke="#E5E7EB" stroke-width="0.384615"/>
<path d="M1257.55 428.143C1255.34 424.317 1256.65 419.424 1260.48 417.215V417.215C1264.3 415.006 1269.19 416.317 1271.4 420.143V420.143C1273.61 423.969 1272.3 428.862 1268.48 431.071V431.071C1264.65 433.28 1259.76 431.969 1257.55 428.143V428.143Z" fill="#C7D2FE" stroke="#E5E7EB" stroke-width="0.384615"/>
<path d="M1275.73 417.643C1273.53 413.817 1274.84 408.924 1278.66 406.715V406.715C1282.49 404.506 1287.38 405.817 1289.59 409.643V409.643C1291.8 413.469 1290.49 418.362 1286.66 420.571V420.571C1282.84 422.78 1277.94 421.469 1275.73 417.643V417.643Z" fill="#C7D2FE" stroke="#E5E7EB" stroke-width="0.384615"/>
<path d="M1293.92 407.143C1291.71 403.317 1293.02 398.424 1296.85 396.215V396.215C1300.68 394.006 1305.57 395.317 1307.78 399.143V399.143C1309.99 402.969 1308.68 407.862 1304.85 410.071V410.071C1301.02 412.28 1296.13 410.969 1293.92 407.143V407.143Z" fill="#C7D2FE" stroke="#E5E7EB" stroke-width="0.384615"/>
<path d="M1312.11 396.643C1309.9 392.817 1311.21 387.924 1315.03 385.715V385.715C1318.86 383.506 1323.75 384.817 1325.96 388.643V388.643C1328.17 392.469 1326.86 397.362 1323.03 399.571V399.571C1319.21 401.78 1314.31 400.469 1312.11 396.643V396.643Z" fill="#C7D2FE" stroke="#E5E7EB" stroke-width="0.384615"/>
</g>
<g opacity="0.4">
<path d="M1253.79 465.172L1341.72 414.403C1346.05 411.906 1351.58 413.388 1354.07 417.712L1424.84 540.288C1427.34 544.612 1425.86 550.141 1421.53 552.638L1333.6 603.407C1329.27 605.904 1323.74 604.422 1321.25 600.098L1250.48 477.522C1247.98 473.198 1249.46 467.669 1253.79 465.172Z" fill="white" stroke="#D8DFFE" stroke-width="0.38"/>
<path d="M1261.86 477.613C1260.48 475.222 1261.3 472.164 1263.69 470.783L1341.63 425.783C1344.02 424.402 1347.08 425.222 1348.46 427.613V427.613C1349.84 430.005 1349.02 433.063 1346.63 434.443L1268.69 479.443C1266.3 480.824 1263.24 480.005 1261.86 477.613V477.613Z" fill="#E4EAFF"/>
<path d="M1280.65 492.166C1279.27 489.775 1280.09 486.717 1282.48 485.336V485.336C1284.87 483.955 1287.93 484.775 1289.31 487.166V487.166C1290.69 489.558 1289.87 492.615 1287.48 493.996V493.996C1285.09 495.377 1282.03 494.558 1280.65 492.166V492.166Z" fill="#C7D2FE"/>
<path d="M1296.24 483.166C1294.86 480.775 1295.68 477.717 1298.07 476.336V476.336C1300.46 474.955 1303.52 475.775 1304.9 478.166V478.166C1306.28 480.558 1305.46 483.615 1303.07 484.996V484.996C1300.68 486.377 1297.62 485.558 1296.24 483.166V483.166Z" fill="#C7D2FE"/>
<path d="M1311.83 474.166C1310.45 471.775 1311.27 468.717 1313.66 467.336V467.336C1316.05 465.955 1319.11 466.775 1320.49 469.166V469.166C1321.87 471.558 1321.05 474.615 1318.66 475.996V475.996C1316.27 477.377 1313.21 476.558 1311.83 474.166V474.166Z" fill="#C7D2FE"/>
<path d="M1327.42 465.166C1326.04 462.775 1326.86 459.717 1329.25 458.336V458.336C1331.64 456.955 1334.7 457.775 1336.08 460.166V460.166C1337.46 462.558 1336.64 465.615 1334.25 466.996V466.996C1331.86 468.377 1328.8 467.558 1327.42 465.166V465.166Z" fill="#C7D2FE"/>
<path d="M1343.01 456.166C1341.63 453.775 1342.45 450.717 1344.84 449.336V449.336C1347.23 447.955 1350.29 448.775 1351.67 451.166V451.166C1353.05 453.558 1352.23 456.615 1349.84 457.996V457.996C1347.45 459.377 1344.39 458.558 1343.01 456.166V456.166Z" fill="#C7D2FE"/>
<path d="M1282.22 506.718L1294.21 499.795C1295.5 499.052 1297.14 499.493 1297.89 500.781L1304.81 512.772C1305.55 514.06 1305.11 515.706 1303.82 516.45L1291.83 523.373C1290.54 524.116 1288.9 523.675 1288.15 522.387L1281.23 510.396C1280.49 509.109 1280.93 507.462 1282.22 506.718Z" fill="#D8DFF4" stroke="white" stroke-width="0.769231"/>
<path d="M1299.54 496.718L1311.53 489.795C1312.82 489.052 1314.46 489.493 1315.21 490.781L1322.13 502.772C1322.87 504.06 1322.43 505.706 1321.14 506.45L1309.15 513.373C1307.86 514.116 1306.22 513.675 1305.47 512.387L1298.55 500.396C1297.81 499.109 1298.25 497.462 1299.54 496.718Z" fill="#D8DFF4" stroke="white" stroke-width="0.769231"/>
<path d="M1316.86 486.718L1328.85 479.795C1330.14 479.052 1331.78 479.493 1332.53 480.781L1339.45 492.772C1340.19 494.06 1339.75 495.706 1338.46 496.45L1326.47 503.373C1325.18 504.116 1323.54 503.675 1322.79 502.387L1315.87 490.396C1315.13 489.109 1315.57 487.462 1316.86 486.718Z" fill="#D8DFF4" stroke="white" stroke-width="0.769231"/>
<path d="M1326.86 504.039L1338.85 497.116C1340.14 496.372 1341.78 496.813 1342.53 498.101L1349.45 510.092C1350.19 511.38 1349.75 513.027 1348.46 513.77L1336.47 520.693C1335.18 521.437 1333.54 520.995 1332.79 519.708L1325.87 507.717C1325.13 506.429 1325.57 504.782 1326.86 504.039Z" fill="#D8DFF4" stroke="white" stroke-width="0.769231"/>
<path d="M1334.18 476.718L1346.17 469.795C1347.46 469.052 1349.1 469.493 1349.85 470.781L1356.77 482.772C1357.51 484.06 1357.07 485.706 1355.78 486.45L1343.79 493.373C1342.5 494.116 1340.86 493.675 1340.11 492.387L1333.19 480.396C1332.45 479.109 1332.89 477.462 1334.18 476.718Z" fill="#D8DFF4" stroke="white" stroke-width="0.769231"/>
<path d="M1344.18 494.039L1356.17 487.116C1357.46 486.372 1359.1 486.813 1359.85 488.101L1366.77 500.092C1367.51 501.38 1367.07 503.027 1365.78 503.77L1353.79 510.693C1352.5 511.437 1350.86 510.995 1350.11 509.708L1343.19 497.717C1342.45 496.429 1342.89 494.782 1344.18 494.039Z" fill="#D8DFF4" stroke="white" stroke-width="0.769231"/>
<path d="M1354.18 511.359L1366.17 504.436C1367.46 503.693 1369.1 504.134 1369.85 505.421L1376.77 517.413C1377.51 518.7 1377.07 520.347 1375.78 521.09L1363.79 528.013C1362.5 528.757 1360.86 528.316 1360.11 527.028L1353.19 515.037C1352.45 513.749 1352.89 512.103 1354.18 511.359Z" fill="#D8DFF4" stroke="white" stroke-width="0.769231"/>
<path d="M1351.5 466.718L1363.49 459.795C1364.78 459.052 1366.42 459.493 1367.17 460.781L1374.09 472.772C1374.83 474.06 1374.39 475.706 1373.1 476.45L1361.11 483.373C1359.83 484.116 1358.18 483.675 1357.44 482.387L1350.51 470.396C1349.77 469.109 1350.21 467.462 1351.5 466.718Z" fill="#D8DFF4" stroke="white" stroke-width="0.769231"/>
<path d="M1361.5 484.039L1373.49 477.116C1374.78 476.372 1376.42 476.813 1377.17 478.101L1384.09 490.092C1384.83 491.38 1384.39 493.027 1383.1 493.77L1371.11 500.693C1369.83 501.437 1368.18 500.995 1367.44 499.708L1360.51 487.717C1359.77 486.429 1360.21 484.782 1361.5 484.039Z" fill="#D8DFF4" stroke="white" stroke-width="0.769231"/>
<path d="M1371.5 501.359L1383.49 494.436C1384.78 493.693 1386.42 494.134 1387.17 495.421L1394.09 507.413C1394.83 508.7 1394.39 510.347 1393.1 511.09L1381.11 518.013C1379.83 518.757 1378.18 518.316 1377.44 517.028L1370.51 505.037C1369.77 503.749 1370.21 502.103 1371.5 501.359Z" fill="#D8DFF4" stroke="white" stroke-width="0.769231"/>
</g>
<g opacity="0.4">
<path d="M1308.63 314.621C1306.08 310.206 1307.59 304.561 1312.01 302.012L1399.94 251.242C1404.36 248.693 1410.01 250.206 1412.55 254.621L1473.32 359.876C1475.87 364.291 1474.36 369.937 1469.94 372.486L1382.01 423.255C1377.59 425.804 1371.95 424.291 1369.4 419.876L1308.63 314.621Z" fill="white"/>
<path d="M1312.11 302.178L1400.04 251.409C1404.36 248.913 1409.89 250.394 1412.39 254.717L1473.16 359.973C1475.65 364.296 1474.17 369.823 1469.85 372.319L1381.91 423.089C1377.59 425.584 1372.06 424.103 1369.57 419.78L1308.8 314.525C1306.3 310.202 1307.78 304.674 1312.11 302.178Z" stroke="#C7D2FE" stroke-opacity="0.6" stroke-width="0.384615"/>
<path d="M1328.84 309.617C1327.46 307.226 1328.27 304.168 1330.67 302.787L1391.29 267.787C1393.68 266.406 1396.74 267.226 1398.12 269.617V269.617C1399.5 272.009 1398.68 275.067 1396.29 276.447L1335.67 311.447C1333.27 312.828 1330.22 312.009 1328.84 309.617V309.617Z" fill="#E4EAFF"/>
<rect x="1337.68" y="344.928" width="20" height="20" rx="3.07692" transform="rotate(-30 1337.68 344.928)" fill="#D8DFFE" stroke="white" stroke-width="0.384615"/>
<rect x="1327.68" y="327.607" width="20" height="20" rx="3.07692" transform="rotate(-30 1327.68 327.607)" fill="#D8DFFE" stroke="white" stroke-width="0.384615"/>
<rect x="1347.68" y="362.248" width="20" height="20" rx="3.07692" transform="rotate(-30 1347.68 362.248)" fill="#D8DFFE" stroke="white" stroke-width="0.384615"/>
<rect x="1357.68" y="379.568" width="20" height="20" rx="3.07692" transform="rotate(-30 1357.68 379.568)" fill="#D8DFFE" stroke="white" stroke-width="0.384615"/>
<rect x="1367.68" y="396.889" width="20" height="20" rx="3.07692" transform="rotate(-30 1367.68 396.889)" fill="#D8DFFE" stroke="white" stroke-width="0.384615"/>
<rect x="1355" y="334.928" width="20" height="20" rx="3.07692" transform="rotate(-30 1355 334.928)" fill="#D8DFFE" stroke="white" stroke-width="0.384615"/>
<rect x="1345" y="317.607" width="20" height="20" rx="3.07692" transform="rotate(-30 1345 317.607)" fill="#D8DFFE" stroke="white" stroke-width="0.384615"/>
<rect x="1365" y="352.248" width="20" height="20" rx="3.07692" transform="rotate(-30 1365 352.248)" fill="#D8DFFE" stroke="white" stroke-width="0.384615"/>
<rect x="1375" y="369.568" width="20" height="20" rx="3.07692" transform="rotate(-30 1375 369.568)" fill="#D8DFFE" stroke="white" stroke-width="0.384615"/>
<rect x="1385" y="386.889" width="20" height="20" rx="3.07692" transform="rotate(-30 1385 386.889)" fill="#D8DFFE" stroke="white" stroke-width="0.384615"/>
<rect x="1372.32" y="324.928" width="20" height="20" rx="3.07692" transform="rotate(-30 1372.32 324.928)" fill="#D8DFFE" stroke="white" stroke-width="0.384615"/>
<rect x="1362.32" y="307.607" width="20" height="20" rx="3.07692" transform="rotate(-30 1362.32 307.607)" fill="#D8DFFE" stroke="white" stroke-width="0.384615"/>
<rect x="1382.32" y="342.248" width="20" height="20" rx="3.07692" transform="rotate(-30 1382.32 342.248)" fill="#C7D2FE" stroke="white" stroke-width="0.384615"/>
<rect x="1392.32" y="359.568" width="20" height="20" rx="3.07692" transform="rotate(-30 1392.32 359.568)" fill="#D8DFFE" stroke="white" stroke-width="0.384615"/>
<rect x="1402.32" y="376.889" width="20" height="20" rx="3.07692" transform="rotate(-30 1402.32 376.889)" fill="#D8DFFE" stroke="white" stroke-width="0.384615"/>
<rect x="1389.64" y="314.928" width="20" height="20" rx="3.07692" transform="rotate(-30 1389.64 314.928)" fill="#D8DFFE" stroke="white" stroke-width="0.384615"/>
<rect x="1379.64" y="297.607" width="20" height="20" rx="3.07692" transform="rotate(-30 1379.64 297.607)" fill="#D8DFFE" stroke="white" stroke-width="0.384615"/>
<rect x="1399.64" y="332.248" width="20" height="20" rx="3.07692" transform="rotate(-30 1399.64 332.248)" fill="#D8DFFE" stroke="white" stroke-width="0.384615"/>
<rect x="1409.64" y="349.568" width="20" height="20" rx="3.07692" transform="rotate(-30 1409.64 349.568)" fill="#D8DFFE" stroke="white" stroke-width="0.384615"/>
<rect x="1419.64" y="366.889" width="20" height="20" rx="3.07692" transform="rotate(-30 1419.64 366.889)" fill="#D8DFFE" stroke="white" stroke-width="0.384615"/>
<rect x="1406.96" y="304.928" width="20" height="20" rx="3.07692" transform="rotate(-30 1406.96 304.928)" fill="#D8DFFE" stroke="white" stroke-width="0.384615"/>
<rect x="1396.96" y="287.607" width="20" height="20" rx="3.07692" transform="rotate(-30 1396.96 287.607)" fill="#D8DFFE" stroke="white" stroke-width="0.384615"/>
<rect x="1416.96" y="322.248" width="20" height="20" rx="3.07692" transform="rotate(-30 1416.96 322.248)" fill="#D8DFFE" stroke="white" stroke-width="0.384615"/>
<rect x="1426.96" y="339.568" width="20" height="20" rx="3.07692" transform="rotate(-30 1426.96 339.568)" fill="#D8DFFE" stroke="white" stroke-width="0.384615"/>
<rect x="1436.96" y="356.889" width="20" height="20" rx="3.07692" transform="rotate(-30 1436.96 356.889)" fill="#D8DFFE" stroke="white" stroke-width="0.384615"/>
</g>
<g opacity="0.4">
<path d="M1384.63 446.258C1382.08 441.843 1383.59 436.197 1388.01 433.648L1475.94 382.879C1480.36 380.33 1486.01 381.843 1488.55 386.258L1549.32 491.513C1551.87 495.928 1550.36 501.574 1545.94 504.123L1458.01 554.892C1453.59 557.441 1447.95 555.928 1445.4 551.513L1384.63 446.258Z" fill="white"/>
<path d="M1388.11 433.815L1476.04 383.046C1480.36 380.55 1485.89 382.031 1488.39 386.354L1549.16 491.609C1551.65 495.932 1550.17 501.46 1545.85 503.956L1457.91 554.725C1453.59 557.221 1448.06 555.74 1445.57 551.417L1384.8 446.162C1382.3 441.839 1383.78 436.311 1388.11 433.815Z" stroke="#C7D2FE" stroke-opacity="0.6" stroke-width="0.384615"/>
<path d="M1395.21 444.589C1394.36 443.117 1394.87 441.235 1396.34 440.385L1477.61 393.462C1479.09 392.613 1480.97 393.117 1481.82 394.589L1484.51 399.252C1485.36 400.723 1484.85 402.605 1483.38 403.455L1402.11 450.378C1400.64 451.228 1398.76 450.723 1397.91 449.252L1395.21 444.589Z" fill="#E4EAFF"/>
<rect x="1414.06" y="477.23" width="20" height="20" transform="rotate(-30 1414.06 477.23)" fill="#C7D2FE" fill-opacity="0.6" stroke="white" stroke-width="1.53846"/>
<rect x="1404.06" y="459.91" width="20" height="20" transform="rotate(-30 1404.06 459.91)" fill="#C7D2FE" fill-opacity="0.6" stroke="white" stroke-width="1.53846"/>
<rect x="1424.06" y="494.551" width="20" height="20" transform="rotate(-30 1424.06 494.551)" fill="#C7D2FE" fill-opacity="0.6" stroke="white" stroke-width="1.53846"/>
<rect x="1434.06" y="511.871" width="20" height="20" transform="rotate(-30 1434.06 511.871)" fill="#C7D2FE" fill-opacity="0.6" stroke="white" stroke-width="1.53846"/>
<rect x="1431.38" y="467.23" width="20" height="20" transform="rotate(-30 1431.38 467.23)" fill="#C7D2FE" fill-opacity="0.6" stroke="white" stroke-width="1.53846"/>
<rect x="1421.38" y="449.91" width="20" height="20" transform="rotate(-30 1421.38 449.91)" fill="#C7D2FE" fill-opacity="0.6" stroke="white" stroke-width="1.53846"/>
<rect x="1438.7" y="439.91" width="20" height="20" transform="rotate(-30 1438.7 439.91)" fill="#C7D2FE" fill-opacity="0.6" stroke="white" stroke-width="1.53846"/>
</g>
<g opacity="0.4">
<path d="M101.906 222.883C105.511 219.278 111.356 219.278 114.961 222.883L186.759 294.681C190.364 298.286 190.364 304.131 186.759 307.735L100.819 393.676C97.2138 397.281 91.3692 397.281 87.7643 393.676L15.9658 321.878C12.3609 318.273 12.3609 312.428 15.9658 308.823L101.906 222.883Z" fill="#E5EBFF"/>
<path d="M114.825 223.019L186.623 294.817C190.153 298.347 190.153 304.07 186.623 307.599L100.683 393.54C97.1529 397.07 91.43 397.07 87.9003 393.54L16.1018 321.742C12.572 318.212 12.572 312.489 16.1018 308.959L102.042 223.019C105.572 219.489 111.295 219.489 114.825 223.019Z" stroke="#C7D2FE" stroke-opacity="0.6" stroke-width="0.384615"/>
<path d="M104.898 234.034C106.851 232.081 110.017 232.081 111.969 234.034L175.609 297.673C177.561 299.626 177.561 302.792 175.609 304.744V304.744C173.656 306.697 170.49 306.697 168.538 304.744L104.898 241.105C102.945 239.152 102.945 235.986 104.898 234.034V234.034Z" fill="#E4EAFF"/>
<rect x="97.1211" y="241.812" width="25" height="25" transform="rotate(45 97.1211 241.812)" fill="#EFF1F5" stroke="#C7D2FE" stroke-width="0.384615"/>
<rect x="79.4453" y="259.49" width="25" height="25" transform="rotate(45 79.4453 259.49)" fill="#EFF1F5" stroke="#C7D2FE" stroke-width="0.384615"/>
<rect x="61.7656" y="277.168" width="25" height="25" transform="rotate(45 61.7656 277.168)" fill="#EFF1F5" stroke="#C7D2FE" stroke-width="0.384615"/>
<rect x="44.0898" y="294.846" width="25" height="25" transform="rotate(45 44.0898 294.846)" fill="#EFF1F5" stroke="#C7D2FE" stroke-width="0.384615"/>
<rect x="114.797" y="259.49" width="25" height="25" transform="rotate(45 114.797 259.49)" fill="#EFF1F5" stroke="#C7D2FE" stroke-width="0.384615"/>
<rect x="97.1211" y="277.168" width="25" height="25" transform="rotate(45 97.1211 277.168)" fill="#EFF1F5" stroke="#C7D2FE" stroke-width="0.384615"/>
<rect x="79.4453" y="294.846" width="25" height="25" transform="rotate(45 79.4453 294.846)" fill="#EFF1F5" stroke="#C7D2FE" stroke-width="0.384615"/>
<rect x="61.7656" y="312.523" width="25" height="25" transform="rotate(45 61.7656 312.523)" fill="#EFF1F5" stroke="#C7D2FE" stroke-width="0.384615"/>
<rect x="132.477" y="277.168" width="25" height="25" transform="rotate(45 132.477 277.168)" fill="#EFF1F5" stroke="#C7D2FE" stroke-width="0.384615"/>
<rect x="114.797" y="294.846" width="25" height="25" transform="rotate(45 114.797 294.846)" fill="#EFF1F5" stroke="#C7D2FE" stroke-width="0.384615"/>
<rect x="97.1211" y="312.523" width="25" height="25" transform="rotate(45 97.1211 312.523)" fill="#EFF1F5" stroke="#C7D2FE" stroke-width="0.384615"/>
<rect x="79.4414" y="330.201" width="25" height="25" transform="rotate(45 79.4414 330.201)" fill="#EFF1F5" stroke="#C7D2FE" stroke-width="0.384615"/>
<rect x="150.152" y="294.846" width="25" height="25" transform="rotate(45 150.152 294.846)" fill="#EFF1F5" stroke="#C7D2FE" stroke-width="0.384615"/>
<rect x="132.477" y="312.523" width="25" height="25" transform="rotate(45 132.477 312.523)" fill="#EFF1F5" stroke="#C7D2FE" stroke-width="0.384615"/>
<rect x="114.797" y="330.201" width="25" height="25" transform="rotate(45 114.797 330.201)" fill="#EFF1F5" stroke="#C7D2FE" stroke-width="0.384615"/>
<rect x="97.1211" y="347.879" width="25" height="25" transform="rotate(45 97.1211 347.879)" fill="#EFF1F5" stroke="#C7D2FE" stroke-width="0.384615"/>
</g>
<g opacity="0.4">
<rect x="0.953125" y="323.836" width="120" height="160" transform="rotate(45 0.953125 323.836)" fill="white"/>
<rect x="0.953125" y="324.108" width="119.615" height="159.615" transform="rotate(45 0.953125 324.108)" stroke="#C7D2FE" stroke-opacity="0.6" stroke-width="0.384615"/>
<path d="M0.953125 337.979L71.6638 408.689L64.5927 415.76L-6.11794 345.05L0.953125 337.979Z" fill="#E4EAFF"/>
<rect x="-6.44531" y="361.693" width="10" height="10" transform="rotate(45 -6.44531 361.693)" fill="#C7D2FE" fill-opacity="0.6"/>
<rect x="17.2148" y="385.355" width="10" height="10" transform="rotate(45 17.2148 385.355)" fill="#C7D2FE" fill-opacity="0.6"/>
<rect x="40.875" y="409.016" width="10" height="10" transform="rotate(45 40.875 409.016)" fill="#C7D2FE" fill-opacity="0.6"/>
<rect x="-3.76172" y="389.832" width="33.3332" height="33.3308" transform="rotate(45 -3.76172 389.832)" fill="#E6EBFF" stroke="white"/>
<rect x="19.9883" y="413.584" width="33.3332" height="33.3308" transform="rotate(45 19.9883 413.584)" fill="#E6EBFF" stroke="white"/>
<rect x="-3.76172" y="436.971" width="33.3332" height="33.3308" transform="rotate(45 -3.76172 436.971)" fill="#E6EBFF" stroke="white"/>
</g>
<g opacity="0.4">
<path d="M215.262 296.203C218.867 292.598 224.711 292.598 228.316 296.203L300.115 368.001C303.72 371.606 303.72 377.451 300.115 381.056L205.471 475.699C201.866 479.304 196.022 479.304 192.417 475.699L120.618 403.901C117.014 400.296 117.014 394.451 120.618 390.846L215.262 296.203Z" fill="white"/>
<path d="M228.18 296.339L299.979 368.137C303.508 371.667 303.508 377.39 299.979 380.92L205.335 475.563C201.805 479.093 196.083 479.093 192.553 475.563L120.754 403.765C117.225 400.235 117.225 394.512 120.754 390.982L215.398 296.339C218.928 292.809 224.65 292.809 228.18 296.339Z" stroke="#C7D2FE" stroke-opacity="0.6" stroke-width="0.384615"/>
<path d="M219.613 305.994C220.815 304.792 222.763 304.792 223.965 305.994L290.324 372.353C291.526 373.555 291.526 375.503 290.324 376.705L280.533 386.495C279.332 387.697 277.384 387.697 276.182 386.495L209.823 320.136C208.621 318.935 208.621 316.986 209.823 315.785L219.613 305.994Z" fill="#E4EAFF"/>
<path d="M194.594 331.015C196.997 328.612 200.894 328.612 203.297 331.015L213.087 340.806L198.945 354.948L184.803 340.806L194.594 331.015Z" fill="#E6EBFF" stroke="white" stroke-width="0.384615"/>
<rect x="184.805" y="340.807" width="20" height="20" transform="rotate(45 184.805 340.807)" fill="#E6EBFF" stroke="white" stroke-width="0.384615"/>
<rect x="170.66" y="354.949" width="20" height="20" transform="rotate(45 170.66 354.949)" fill="#E6EBFF" stroke="white" stroke-width="0.384615"/>
<rect x="156.52" y="369.09" width="20" height="20" transform="rotate(45 156.52 369.09)" fill="#E6EBFF" stroke="white" stroke-width="0.384615"/>
<rect x="213.086" y="340.807" width="20" height="20" transform="rotate(45 213.086 340.807)" fill="#E6EBFF" stroke="white" stroke-width="0.384615"/>
<rect x="198.945" y="354.949" width="20" height="20" transform="rotate(45 198.945 354.949)" fill="#E6EBFF" stroke="white" stroke-width="0.384615"/>
<rect x="184.805" y="369.09" width="20" height="20" transform="rotate(45 184.805 369.09)" fill="#E6EBFF" stroke="white" stroke-width="0.384615"/>
<rect x="170.66" y="383.232" width="20" height="20" transform="rotate(45 170.66 383.232)" fill="#E6EBFF" stroke="white" stroke-width="0.384615"/>
<rect x="227.23" y="354.949" width="20" height="20" transform="rotate(45 227.23 354.949)" fill="#E6EBFF" stroke="white" stroke-width="0.384615"/>
<rect x="213.086" y="369.09" width="20" height="20" transform="rotate(45 213.086 369.09)" fill="#E6EBFF" stroke="white" stroke-width="0.384615"/>
<rect x="198.945" y="383.232" width="20" height="20" transform="rotate(45 198.945 383.232)" fill="#C7D2FE" stroke="white" stroke-width="0.384615"/>
<rect x="184.805" y="397.375" width="20" height="20" transform="rotate(45 184.805 397.375)" fill="#E6EBFF" stroke="white" stroke-width="0.384615"/>
<rect x="241.371" y="369.09" width="20" height="20" transform="rotate(45 241.371 369.09)" fill="#E6EBFF" stroke="white" stroke-width="0.384615"/>
<rect x="227.23" y="383.232" width="20" height="20" transform="rotate(45 227.23 383.232)" fill="#E6EBFF" stroke="white" stroke-width="0.384615"/>
<rect x="213.086" y="397.375" width="20" height="20" transform="rotate(45 213.086 397.375)" fill="#E6EBFF" stroke="white" stroke-width="0.384615"/>
<rect x="198.945" y="411.518" width="20" height="20" transform="rotate(45 198.945 411.518)" fill="#E6EBFF" stroke="white" stroke-width="0.384615"/>
<path d="M255.516 383.232L265.306 393.023C267.71 395.426 267.71 399.323 265.306 401.726L255.516 411.517L241.373 397.375L255.516 383.232Z" fill="#E6EBFF" stroke="white" stroke-width="0.384615"/>
<rect x="241.371" y="397.375" width="20" height="20" transform="rotate(45 241.371 397.375)" fill="#E6EBFF" stroke="white" stroke-width="0.384615"/>
<rect x="227.23" y="411.518" width="20" height="20" transform="rotate(45 227.23 411.518)" fill="#E6EBFF" stroke="white" stroke-width="0.384615"/>
<rect x="213.086" y="425.658" width="20" height="20" transform="rotate(45 213.086 425.658)" fill="#E6EBFF" stroke="white" stroke-width="0.384615"/>
<path d="M142.375 383.232L156.517 397.375L142.375 411.517L132.584 401.726C130.181 399.323 130.181 395.426 132.584 393.023L142.375 383.232Z" fill="#E6EBFF" stroke="white" stroke-width="0.384615"/>
<rect x="156.52" y="397.375" width="20" height="20" transform="rotate(45 156.52 397.375)" fill="#E6EBFF" stroke="white" stroke-width="0.384615"/>
<rect x="170.66" y="411.518" width="20" height="20" transform="rotate(45 170.66 411.518)" fill="#E6EBFF" stroke="white" stroke-width="0.384615"/>
<rect x="184.805" y="425.658" width="20" height="20" transform="rotate(45 184.805 425.658)" fill="#E6EBFF" stroke="white" stroke-width="0.384615"/>
<path d="M198.945 439.801L213.087 453.943L203.297 463.734C200.894 466.137 196.997 466.137 194.594 463.734L184.803 453.943L198.945 439.801Z" fill="#E6EBFF" stroke="white" stroke-width="0.384615"/>
</g>
<g opacity="0.4">
<path d="M100.492 410.972C104.097 407.368 109.942 407.368 113.547 410.972L185.345 482.771C188.95 486.376 188.95 492.22 185.345 495.825L85.2624 595.908C81.6576 599.513 75.813 599.513 72.2081 595.908L0.409587 524.11C-3.19525 520.505 -3.19525 514.66 0.409588 511.055L100.492 410.972Z" fill="white"/>
<path d="M113.411 411.108L185.209 482.907C188.739 486.437 188.739 492.16 185.209 495.689L85.1264 595.772C81.5967 599.302 75.8738 599.302 72.3441 595.772L0.545568 523.974C-2.98417 520.444 -2.98417 514.721 0.545573 511.191L100.628 411.108C104.158 407.579 109.881 407.579 113.411 411.108Z" stroke="#C7D2FE" stroke-opacity="0.6" stroke-width="0.384615"/>
<path d="M101.58 412.06C104.584 409.056 109.455 409.056 112.459 412.06L184.257 483.859C187.261 486.863 187.261 491.733 184.257 494.737L175.554 503.44L92.8774 420.763L101.58 412.06Z" fill="#C7D2FE"/>
<path d="M88.5255 437.082C90.3279 435.28 93.2502 435.28 95.0526 437.082L159.236 501.265C161.039 503.068 161.039 505.99 159.236 507.793V507.793C157.434 509.595 154.511 509.595 152.709 507.793L88.5255 443.609C86.7231 441.807 86.7231 438.884 88.5255 437.082V437.082Z" fill="#E4E9FF"/>
<path d="M80.6381 449.319L90.4288 459.109C91.4802 460.161 91.4802 461.866 90.4288 462.917L80.6381 472.708C79.5867 473.759 77.882 473.759 76.8306 472.708L67.0399 462.917C65.9885 461.866 65.9885 460.161 67.0399 459.109L76.8306 449.319C77.882 448.267 79.5867 448.267 80.6381 449.319Z" fill="#F1F3FF" stroke="white" stroke-width="0.769231"/>
<path d="M66.4975 463.461L76.2882 473.252C77.3396 474.303 77.3396 476.008 76.2882 477.06L66.4975 486.85C65.4461 487.902 63.7414 487.902 62.69 486.85L52.8993 477.06C51.8479 476.008 51.8479 474.303 52.8993 473.252L62.69 463.461C63.7414 462.41 65.4461 462.41 66.4975 463.461Z" fill="#F1F3FF" stroke="white" stroke-width="0.769231"/>
<path d="M52.353 477.604L62.1437 487.395C63.1951 488.446 63.1951 490.151 62.1437 491.202L52.353 500.993C51.3016 502.044 49.5969 502.044 48.5455 500.993L38.7548 491.202C37.7033 490.151 37.7033 488.446 38.7548 487.395L48.5455 477.604C49.5969 476.553 51.3016 476.553 52.353 477.604Z" fill="#F1F3FF" stroke="white" stroke-width="0.769231"/>
<path d="M38.2123 491.745L48.0031 501.535C49.0545 502.587 49.0545 504.291 48.0031 505.343L38.2123 515.133C37.1609 516.185 35.4563 516.185 34.4048 515.133L24.6141 505.343C23.5627 504.291 23.5627 502.587 24.6141 501.535L34.4048 491.745C35.4563 490.693 37.1609 490.693 38.2123 491.745Z" fill="#F1F3FF" stroke="white" stroke-width="0.769231"/>
<path d="M94.7787 463.461L104.569 473.252C105.621 474.303 105.621 476.008 104.569 477.06L94.7787 486.85C93.7273 487.902 92.0227 487.902 90.9713 486.85L81.1805 477.06C80.1291 476.008 80.1291 474.303 81.1805 473.252L90.9713 463.461C92.0227 462.41 93.7273 462.41 94.7787 463.461Z" fill="#F1F3FF" stroke="white" stroke-width="0.769231"/>
<path d="M80.6381 477.604L90.4288 487.395C91.4802 488.446 91.4802 490.151 90.4288 491.202L80.6381 500.993C79.5867 502.044 77.882 502.044 76.8306 500.993L67.0399 491.202C65.9885 490.151 65.9885 488.446 67.0399 487.395L76.8306 477.604C77.882 476.553 79.5867 476.553 80.6381 477.604Z" fill="#F1F3FF" stroke="white" stroke-width="0.769231"/>
<path d="M66.4975 491.745L76.2882 501.535C77.3396 502.587 77.3396 504.291 76.2882 505.343L66.4975 515.133C65.4461 516.185 63.7414 516.185 62.69 515.133L52.8993 505.343C51.8479 504.291 51.8479 502.587 52.8993 501.535L62.69 491.745C63.7414 490.693 65.4461 490.693 66.4975 491.745Z" fill="#F1F3FF" stroke="white" stroke-width="0.769231"/>
<path d="M52.353 505.887L62.1437 515.678C63.1951 516.729 63.1951 518.434 62.1437 519.485L52.353 529.276C51.3016 530.327 49.5969 530.327 48.5455 529.276L38.7548 519.485C37.7033 518.434 37.7033 516.729 38.7548 515.678L48.5455 505.887C49.5969 504.836 51.3016 504.836 52.353 505.887Z" fill="#F1F3FF" stroke="white" stroke-width="0.769231"/>
<path d="M108.923 477.604L118.714 487.395C119.765 488.446 119.765 490.151 118.714 491.202L108.923 500.993C107.872 502.044 106.167 502.044 105.116 500.993L95.3251 491.202C94.2737 490.151 94.2737 488.446 95.3251 487.395L105.116 477.604C106.167 476.553 107.872 476.553 108.923 477.604Z" fill="#F1F3FF" stroke="white" stroke-width="0.769231"/>
<path d="M94.7787 491.745L104.569 501.535C105.621 502.587 105.621 504.291 104.569 505.343L94.7787 515.133C93.7273 516.185 92.0227 516.185 90.9713 515.133L81.1805 505.343C80.1291 504.291 80.1291 502.587 81.1805 501.535L90.9713 491.745C92.0227 490.693 93.7273 490.693 94.7787 491.745Z" fill="#F1F3FF" stroke="white" stroke-width="0.769231"/>
<path d="M80.6381 505.887L90.4288 515.678C91.4802 516.729 91.4802 518.434 90.4288 519.485L80.6381 529.276C79.5867 530.327 77.882 530.327 76.8306 529.276L67.0399 519.485C65.9885 518.434 65.9885 516.729 67.0399 515.678L76.8306 505.887C77.882 504.836 79.5867 504.836 80.6381 505.887Z" fill="#F1F3FF" stroke="white" stroke-width="0.769231"/>
<path d="M123.064 491.745L132.855 501.535C133.906 502.587 133.906 504.291 132.855 505.343L123.064 515.133C122.012 516.185 120.308 516.185 119.256 515.133L109.466 505.343C108.414 504.291 108.414 502.587 109.466 501.535L119.256 491.745C120.308 490.693 122.012 490.693 123.064 491.745Z" fill="#F1F3FF" stroke="white" stroke-width="0.769231"/>
<path d="M108.923 505.887L118.714 515.678C119.765 516.729 119.765 518.434 118.714 519.485L108.923 529.276C107.872 530.327 106.167 530.327 105.116 529.276L95.3251 519.485C94.2737 518.434 94.2737 516.729 95.3251 515.678L105.116 505.887C106.167 504.836 107.872 504.836 108.923 505.887Z" fill="#F1F3FF" stroke="white" stroke-width="0.769231"/>
<path d="M137.208 505.887L146.999 515.678C148.051 516.729 148.051 518.434 146.999 519.485L137.208 529.276C136.157 530.327 134.452 530.327 133.401 529.276L123.61 519.485C122.559 518.434 122.559 516.729 123.61 515.678L133.401 505.887C134.452 504.836 136.157 504.836 137.208 505.887Z" fill="#F1F3FF" stroke="white" stroke-width="0.769231"/>
<path d="M24.0717 505.887L33.8624 515.678C34.9138 516.729 34.9138 518.434 33.8624 519.485L24.0717 529.276C23.0203 530.327 21.3156 530.327 20.2642 529.276L10.4735 519.485C9.4221 518.434 9.4221 516.729 10.4735 515.678L20.2642 505.887C21.3156 504.836 23.0203 504.836 24.0717 505.887Z" fill="#F1F3FF" stroke="white" stroke-width="0.769231"/>
</g>
<g opacity="0.4">
<path d="M289.129 409.013C292.734 405.409 298.579 405.409 302.183 409.013L373.982 480.812C377.587 484.417 377.587 490.261 373.982 493.866L273.355 594.493C269.75 598.098 263.906 598.098 260.301 594.493L188.502 522.694C184.898 519.09 184.898 513.245 188.502 509.64L289.129 409.013Z" fill="white"/>
<path d="M302.047 409.149L373.846 480.948C377.376 484.478 377.376 490.201 373.846 493.73L273.219 594.357C269.689 597.887 263.967 597.887 260.437 594.357L188.638 522.558C185.109 519.029 185.109 513.306 188.638 509.776L289.265 409.149C292.795 405.62 298.518 405.62 302.047 409.149Z" stroke="#C7D2FE" stroke-opacity="0.6" stroke-width="0.384615"/>
<path d="M292.121 420.164C294.073 418.212 297.239 418.212 299.192 420.164L362.831 483.804C364.784 485.757 364.784 488.922 362.831 490.875V490.875C360.879 492.828 357.713 492.828 355.76 490.875L292.121 427.236C290.168 425.283 290.168 422.117 292.121 420.164V420.164Z" fill="#C7D2FE"/>
<path d="M287.551 437.461L294.622 444.532L287.551 451.603L280.48 444.532L287.551 437.461Z" fill="#C7D2FE"/>
<path d="M300.277 450.189L307.348 457.261L300.277 464.332L293.206 457.261L300.277 450.189Z" fill="#C7D2FE"/>
<path d="M313.008 462.916L320.079 469.987L313.008 477.058L305.937 469.987L313.008 462.916Z" fill="#C7D2FE"/>
<path d="M325.734 475.645L332.805 482.716L325.734 489.787L318.663 482.716L325.734 475.645Z" fill="#C7D2FE"/>
<path d="M338.461 488.373L345.532 495.444L338.461 502.515L331.39 495.444L338.461 488.373Z" fill="#C7D2FE"/>
<path d="M261.007 451.278C264.131 448.154 269.197 448.154 272.321 451.278V451.278C275.445 454.402 275.445 459.467 272.321 462.592V462.592C269.197 465.716 264.131 465.716 261.007 462.592V462.592C257.883 459.467 257.883 454.402 261.007 451.278V451.278Z" fill="#C7D2FE" stroke="#E5E7EB" stroke-width="0.384615"/>
<path d="M246.16 466.128C249.284 463.003 254.349 463.003 257.473 466.128V466.128C260.597 469.252 260.597 474.317 257.473 477.441V477.441C254.349 480.565 249.284 480.565 246.16 477.441V477.441C243.035 474.317 243.035 469.252 246.16 466.128V466.128Z" fill="#C7D2FE" stroke="#E5E7EB" stroke-width="0.384615"/>
<path d="M231.308 480.977C234.432 477.853 239.498 477.853 242.622 480.977V480.977C245.746 484.101 245.746 489.167 242.622 492.291V492.291C239.498 495.415 234.432 495.415 231.308 492.291V492.291C228.184 489.167 228.184 484.101 231.308 480.977V480.977Z" fill="#C7D2FE" stroke="#E5E7EB" stroke-width="0.384615"/>
<path d="M216.46 495.825C219.585 492.701 224.65 492.701 227.774 495.825V495.825C230.898 498.949 230.898 504.014 227.774 507.139V507.139C224.65 510.263 219.585 510.263 216.46 507.139V507.139C213.336 504.014 213.336 498.949 216.46 495.825V495.825Z" fill="#C7D2FE" stroke="#E5E7EB" stroke-width="0.384615"/>
<path d="M275.855 466.128C278.979 463.003 284.044 463.003 287.169 466.128V466.128C290.293 469.252 290.293 474.317 287.169 477.441V477.441C284.044 480.565 278.979 480.565 275.855 477.441V477.441C272.731 474.317 272.731 469.252 275.855 466.128V466.128Z" fill="#C7D2FE" stroke="#E5E7EB" stroke-width="0.384615"/>
<path d="M261.007 480.977C264.131 477.853 269.197 477.853 272.321 480.977V480.977C275.445 484.101 275.445 489.167 272.321 492.291V492.291C269.197 495.415 264.131 495.415 261.007 492.291V492.291C257.883 489.167 257.883 484.101 261.007 480.977V480.977Z" fill="#C7D2FE" stroke="#E5E7EB" stroke-width="0.384615"/>
<path d="M246.16 495.825C249.284 492.701 254.349 492.701 257.473 495.825V495.825C260.597 498.949 260.597 504.014 257.473 507.139V507.139C254.349 510.263 249.284 510.263 246.16 507.139V507.139C243.035 504.014 243.035 498.949 246.16 495.825V495.825Z" fill="#C7D2FE" stroke="#E5E7EB" stroke-width="0.384615"/>
<path d="M231.308 510.674C234.432 507.55 239.498 507.55 242.622 510.674V510.674C245.746 513.799 245.746 518.864 242.622 521.988V521.988C239.498 525.112 234.432 525.112 231.308 521.988V521.988C228.184 518.864 228.184 513.799 231.308 510.674V510.674Z" fill="#C7D2FE" stroke="#E5E7EB" stroke-width="0.384615"/>
<path d="M290.706 480.977C293.831 477.853 298.896 477.853 302.02 480.977V480.977C305.144 484.101 305.144 489.167 302.02 492.291V492.291C298.896 495.415 293.831 495.415 290.706 492.291V492.291C287.582 489.167 287.582 484.101 290.706 480.977V480.977Z" fill="#C7D2FE" stroke="#E5E7EB" stroke-width="0.384615"/>
<path d="M275.855 495.825C278.979 492.701 284.044 492.701 287.169 495.825V495.825C290.293 498.949 290.293 504.014 287.169 507.139V507.139C284.044 510.263 278.979 510.263 275.855 507.139V507.139C272.731 504.014 272.731 498.949 275.855 495.825V495.825Z" fill="#C7D2FE" stroke="#E5E7EB" stroke-width="0.384615"/>
<path d="M261.007 510.674C264.131 507.55 269.197 507.55 272.321 510.674V510.674C275.445 513.799 275.445 518.864 272.321 521.988V521.988C269.197 525.112 264.131 525.112 261.007 521.988V521.988C257.883 518.864 257.883 513.799 261.007 510.674V510.674Z" fill="#C7D2FE" stroke="#E5E7EB" stroke-width="0.384615"/>
<path d="M305.554 495.825C308.678 492.701 313.744 492.701 316.868 495.825V495.825C319.992 498.949 319.992 504.014 316.868 507.139V507.139C313.744 510.263 308.678 510.263 305.554 507.139V507.139C302.43 504.014 302.43 498.949 305.554 495.825V495.825Z" fill="#C7D2FE" stroke="#E5E7EB" stroke-width="0.384615"/>
<path d="M290.706 510.674C293.831 507.55 298.896 507.55 302.02 510.674V510.674C305.144 513.799 305.144 518.864 302.02 521.988V521.988C298.896 525.112 293.831 525.112 290.706 521.988V521.988C287.582 518.864 287.582 513.799 290.706 510.674V510.674Z" fill="#C7D2FE" stroke="#E5E7EB" stroke-width="0.384615"/>
<path d="M320.406 510.674C323.53 507.55 328.595 507.55 331.719 510.674V510.674C334.844 513.799 334.844 518.864 331.719 521.988V521.988C328.595 525.112 323.53 525.112 320.406 521.988V521.988C317.281 518.864 317.281 513.799 320.406 510.674V510.674Z" fill="#C7D2FE" stroke="#E5E7EB" stroke-width="0.384615"/>
<path d="M201.773 510.512C204.897 507.388 209.962 507.388 213.087 510.512V510.512C216.211 513.637 216.211 518.702 213.087 521.826V521.826C209.962 524.95 204.897 524.95 201.773 521.826V521.826C198.649 518.702 198.649 513.637 201.773 510.512V510.512Z" fill="#C7D2FE" stroke="#E5E7EB" stroke-width="0.384615"/>
</g>
</g>
<defs>
<clipPath id="clip0_296_27163">
<rect width="1440" height="505" fill="white"/>
</clipPath>
</defs>
</svg>
