<svg width="23" height="23" viewBox="0 0 23 23" fill="none" xmlns="http://www.w3.org/2000/svg">
<path d="M22 11.5C22 17.299 17.299 22 11.5 22C5.70101 22 1 17.299 1 11.5C1 5.70101 5.70101 1 11.5 1C17.299 1 22 5.70101 22 11.5Z" stroke="#737373" stroke-width="2"/>
<path d="M19.2609 11.5C19.2609 15.7862 15.7862 19.2609 11.5 19.2609C7.21379 19.2609 3.73913 15.7862 3.73913 11.5C3.73913 7.21379 7.21379 3.73913 11.5 3.73913C15.7862 3.73913 19.2609 7.21379 19.2609 11.5Z" stroke="#737373" stroke-width="2"/>
<path d="M11.9588 8.41177V15H11.7529V8.63052H11.7143L10.2989 9.56985V9.32537L11.6757 8.41177H11.9588Z" stroke="#737373" stroke-width="2"/>
</svg>
